<svg width="265" height="274" viewBox="0 0 265 274" fill="none" xmlns="http://www.w3.org/2000/svg">
<path d="M30.7911 263.63C30.6549 264.078 30.547 264.521 30.4676 264.952C30.3881 265.383 30.3427 265.815 30.3427 266.246C30.3427 267.075 30.7684 267.761 31.6253 268.3C32.4822 268.845 33.8386 269.112 35.7 269.112C36.8293 269.112 37.9189 269.072 38.9745 268.987C40.03 268.908 41.0175 268.788 41.9368 268.641C42.8619 268.493 43.6677 268.317 44.3658 268.119L44.3885 271.257C43.7075 271.422 42.9186 271.564 42.022 271.694C41.1253 271.825 40.1549 271.921 39.1107 271.995C38.0665 272.069 36.9598 272.108 35.7965 272.108C33.9521 272.108 32.4028 271.91 31.1543 271.512C29.9001 271.115 28.958 270.531 28.3281 269.759C27.6982 268.987 27.3804 268.045 27.3804 266.933C27.3804 266.24 27.4371 265.588 27.5563 264.992C27.6755 264.396 27.7776 263.857 27.8798 263.374L30.7967 263.647L30.7911 263.63ZM29.0205 253.216C29.9341 253.318 30.9613 253.392 32.0963 253.443C33.237 253.494 34.4515 253.517 35.7454 253.517C36.5569 253.517 37.3911 253.5 38.2367 253.466C39.0823 253.432 39.8995 253.392 40.6883 253.341C41.4772 253.29 42.1865 253.233 42.8165 253.165V256.127C42.2319 256.179 41.5453 256.224 40.7508 256.275C39.9506 256.326 39.122 256.36 38.2481 256.388C37.3798 256.411 36.5399 256.428 35.7454 256.428C34.4685 256.428 33.2767 256.405 32.1701 256.354C31.0691 256.303 30.0136 256.241 29.0205 256.156V253.216Z" fill="black"/>
<path d="M62.2074 254.087C62.0258 255.364 61.8044 256.715 61.5491 258.134C61.2937 259.552 60.9475 260.983 60.5162 262.43C60.0168 264.11 59.455 265.545 58.825 266.737C58.1951 267.929 57.5028 268.848 56.748 269.478C55.9932 270.108 55.1817 270.426 54.3191 270.426C53.4565 270.426 52.6506 270.125 51.9015 269.529C51.1524 268.933 50.5508 268.099 50.0968 267.026C49.6371 265.954 49.4102 264.728 49.4102 263.349C49.4102 261.936 49.6996 260.602 50.2784 259.337C50.863 258.077 51.6631 256.959 52.6847 255.977C53.7062 254.995 54.9036 254.229 56.2713 253.673C57.6446 253.117 59.1201 252.839 60.7148 252.839C62.2244 252.839 63.5921 253.083 64.8122 253.571C66.0323 254.059 67.0765 254.74 67.9391 255.614C68.8018 256.488 69.4657 257.498 69.9311 258.667C70.3964 259.831 70.6291 261.073 70.6291 262.401C70.6291 264.144 70.2659 265.699 69.5452 267.055C68.8244 268.417 67.7632 269.54 66.3672 270.42C64.9711 271.3 63.2345 271.89 61.1632 272.191L59.4947 269.552C59.9544 269.501 60.3743 269.444 60.7375 269.376C61.1007 269.308 61.4526 269.245 61.7817 269.177C62.5762 268.996 63.331 268.712 64.0347 268.332C64.7384 267.951 65.357 267.475 65.8905 266.902C66.4239 266.328 66.8382 265.653 67.1503 264.881C67.4568 264.109 67.61 263.253 67.61 262.305C67.61 261.312 67.4568 260.398 67.1503 259.564C66.8439 258.735 66.3899 258.009 65.794 257.385C65.1981 256.76 64.4717 256.278 63.6148 255.937C62.7578 255.597 61.7761 255.427 60.6638 255.427C59.3188 255.427 58.127 255.665 57.0942 256.147C56.0556 256.63 55.1817 257.254 54.4666 258.015C53.7516 258.781 53.2068 259.609 52.8379 260.506C52.469 261.403 52.276 262.259 52.276 263.071C52.276 263.951 52.3839 264.683 52.5995 265.273C52.8152 265.863 53.0819 266.3 53.4054 266.595C53.7289 266.885 54.058 267.032 54.3928 267.032C54.756 267.032 55.1249 266.851 55.4881 266.487C55.8513 266.124 56.2145 265.551 56.572 264.779C56.9296 264.002 57.2871 263.02 57.656 261.828C58.0249 260.636 58.337 259.359 58.6037 258.003C58.8704 256.647 59.0577 255.319 59.1712 254.002L62.213 254.076L62.2074 254.087Z" fill="black"/>
<path d="M89.1525 272.353L87.6599 268.108H78.8126L77.32 272.353H73.9888L81.355 251.764H85.1459L92.5121 272.353H89.1525ZM79.6922 265.543H86.7803L83.2504 255.458L79.6922 265.543Z" fill="black"/>
<path d="M99.4026 251.79H96.2075V272.351H99.4026V251.79Z" fill="black"/>
<path d="M105.736 256.904C106.167 256.938 106.587 256.949 106.995 256.943C107.404 256.932 107.83 256.921 108.278 256.904C108.658 256.887 109.146 256.858 109.736 256.818C110.327 256.779 110.951 256.733 111.615 256.682C112.285 256.631 112.949 256.58 113.607 256.523C114.265 256.467 114.889 256.416 115.463 256.376C116.036 256.336 116.495 256.313 116.847 256.313C117.693 256.313 118.442 256.455 119.089 256.739C119.736 257.023 120.258 257.494 120.644 258.169C121.035 258.839 121.228 259.769 121.228 260.944C121.228 261.909 121.183 262.965 121.092 264.105C121.001 265.252 120.854 266.353 120.644 267.397C120.434 268.441 120.156 269.315 119.81 270.007C119.412 270.87 118.873 271.46 118.198 271.778C117.528 272.096 116.739 272.249 115.843 272.249C115.36 272.249 114.844 272.215 114.299 272.135C113.749 272.062 113.266 271.982 112.852 271.897L112.381 268.957C112.71 269.042 113.073 269.122 113.459 269.207C113.851 269.292 114.22 269.355 114.566 269.394C114.918 269.434 115.196 269.457 115.412 269.457C115.843 269.457 116.223 269.383 116.558 269.23C116.887 269.082 117.165 268.781 117.381 268.333C117.613 267.834 117.806 267.192 117.965 266.404C118.124 265.62 118.238 264.769 118.311 263.856C118.385 262.942 118.425 262.068 118.425 261.239C118.425 260.541 118.328 260.025 118.136 259.696C117.943 259.361 117.665 259.14 117.29 259.02C116.915 258.907 116.473 258.844 115.956 258.844C115.576 258.844 115.048 258.873 114.373 258.93C113.698 258.986 112.988 259.054 112.228 259.128C111.473 259.202 110.769 259.287 110.111 259.367C109.453 259.446 108.953 259.514 108.601 259.565C108.255 259.616 107.824 259.673 107.308 259.741C106.791 259.809 106.354 259.872 105.985 259.94L105.713 256.904H105.736ZM115.502 251.7C115.451 251.983 115.389 252.295 115.315 252.636C115.241 252.976 115.167 253.294 115.105 253.595C115.037 253.941 114.958 254.35 114.867 254.827C114.776 255.303 114.685 255.78 114.594 256.274C114.504 256.767 114.401 257.244 114.282 257.704C114.118 258.402 113.908 259.213 113.658 260.144C113.414 261.069 113.119 262.068 112.784 263.135C112.455 264.196 112.08 265.274 111.677 266.358C111.274 267.442 110.832 268.503 110.355 269.536C109.884 270.563 109.385 271.505 108.851 272.351L105.934 271.205C106.513 270.427 107.058 269.553 107.569 268.594C108.074 267.629 108.533 266.636 108.948 265.603C109.362 264.571 109.731 263.56 110.054 262.562C110.383 261.563 110.662 260.638 110.9 259.787C111.138 258.935 111.326 258.186 111.462 257.556C111.694 256.478 111.876 255.411 112.012 254.356C112.143 253.3 112.205 252.301 112.188 251.353L115.502 251.7ZM124.094 254.31C124.475 254.844 124.883 255.496 125.314 256.279C125.746 257.057 126.171 257.885 126.58 258.759C126.994 259.633 127.375 260.473 127.715 261.285C128.05 262.102 128.322 262.794 128.527 263.379L125.683 264.673C125.519 263.992 125.286 263.237 124.991 262.408C124.696 261.58 124.35 260.729 123.969 259.866C123.589 259.003 123.181 258.186 122.749 257.414C122.312 256.643 121.875 255.99 121.427 255.456L124.094 254.31ZM123.845 250.803C124.06 251.104 124.287 251.461 124.531 251.876C124.775 252.29 125.008 252.704 125.241 253.118C125.473 253.533 125.678 253.907 125.837 254.242L124.021 255.014C123.856 254.668 123.657 254.287 123.436 253.879C123.209 253.47 122.976 253.062 122.738 252.647C122.5 252.233 122.261 251.87 122.029 251.552L123.845 250.803ZM126.733 249.702C126.949 250.02 127.187 250.389 127.448 250.809C127.709 251.229 127.953 251.649 128.197 252.057C128.436 252.466 128.634 252.812 128.782 253.113L126.966 253.89C126.716 253.357 126.404 252.766 126.03 252.12C125.655 251.467 125.297 250.916 124.946 250.445L126.739 249.696L126.733 249.702Z" fill="black"/>
<path d="M134.781 272.77C134.281 272.14 133.719 271.494 133.101 270.841C132.476 270.188 131.852 269.547 131.222 268.923C130.592 268.298 129.979 267.748 129.378 267.271L131.722 265.251C132.301 265.733 132.936 266.295 133.617 266.948C134.298 267.595 134.951 268.253 135.575 268.917C136.199 269.581 136.733 270.183 137.181 270.733L134.792 272.776L134.781 272.77Z" fill="black"/>
<path d="M147.079 250.028L149.474 250.55C149.156 251.68 148.782 252.786 148.35 253.876C147.919 254.966 147.442 255.976 146.92 256.912C146.398 257.854 145.836 258.677 145.24 259.392C145.11 259.262 144.923 259.091 144.69 258.881C144.457 258.671 144.219 258.473 143.969 258.285C143.725 258.093 143.51 257.939 143.322 257.826C144.185 256.901 144.94 255.743 145.587 254.364C146.239 252.985 146.733 251.538 147.079 250.028ZM145.263 256.424H147.431V263.047C147.431 263.83 147.397 264.676 147.346 265.578C147.289 266.48 147.187 267.4 147.045 268.33C146.903 269.261 146.693 270.152 146.409 271.009C146.126 271.866 145.763 272.643 145.314 273.364C145.178 273.234 144.996 273.092 144.764 272.938C144.531 272.785 144.293 272.638 144.054 272.49C143.81 272.343 143.6 272.235 143.419 272.167C143.981 271.287 144.401 270.317 144.662 269.267C144.928 268.211 145.093 267.139 145.161 266.055C145.229 264.965 145.257 263.961 145.257 263.03V256.43L145.263 256.424ZM146.262 256.424H153.259V258.416H146.262V256.424ZM146.262 260.561H153.259V262.479H146.262V260.561ZM146.262 264.772H153.259V266.764H146.262V264.772ZM147.505 252.338H151.517V254.381H147.505V252.338ZM149.077 257.446H150.87V265.538H149.077V257.446ZM150.87 252.338H151.392L151.738 252.236L153.259 253.184C152.993 253.967 152.646 254.79 152.215 255.675C151.784 256.555 151.375 257.304 150.995 257.917C150.779 257.752 150.507 257.57 150.183 257.383C149.86 257.196 149.582 257.037 149.349 256.923C149.548 256.526 149.741 256.084 149.934 255.59C150.127 255.096 150.308 254.597 150.467 254.097C150.632 253.592 150.768 253.144 150.864 252.764L150.87 252.338ZM152.539 256.424H154.729V270.668C154.729 271.219 154.667 271.667 154.542 272.025C154.417 272.382 154.173 272.66 153.81 272.865C153.447 273.046 152.998 273.165 152.465 273.211C151.931 273.256 151.267 273.285 150.473 273.285C150.422 272.972 150.325 272.592 150.172 272.144C150.019 271.696 149.866 271.321 149.701 271.02C150.234 271.037 150.728 271.054 151.182 271.06C151.636 271.066 151.948 271.06 152.113 271.049C152.26 271.049 152.368 271.02 152.442 270.964C152.51 270.907 152.539 270.793 152.539 270.629V256.435V256.424ZM158.367 252.043H160.756C160.637 253.24 160.432 254.341 160.132 255.357C159.831 256.373 159.349 257.275 158.685 258.076C158.021 258.87 157.084 259.534 155.87 260.067C155.734 259.784 155.529 259.46 155.246 259.097C154.962 258.734 154.695 258.444 154.445 258.251C155.444 257.837 156.205 257.315 156.738 256.696C157.271 256.078 157.646 255.374 157.879 254.591C158.111 253.814 158.27 252.962 158.355 252.049L158.367 252.043ZM156.67 259.738L158.889 260.164C158.656 261.31 158.338 262.417 157.941 263.49C157.544 264.562 157.096 265.47 156.596 266.219C156.449 266.1 156.25 265.981 156.012 265.845C155.773 265.714 155.524 265.589 155.263 265.47C155.007 265.351 154.786 265.254 154.604 265.169C155.104 264.488 155.524 263.665 155.875 262.701C156.222 261.736 156.488 260.748 156.67 259.738ZM155.132 266.611H166.885V268.926H155.132V266.611ZM155.2 251.317H164.592V253.535H155.2V251.317ZM157.022 261.883H166.408V264.148H157.022V261.883ZM159.961 259.54H162.504V273.211H159.961V259.54ZM163.872 251.317H166.238C166.221 251.754 166.204 252.037 166.187 252.191C166.153 253.535 166.102 254.642 166.028 255.505C165.954 256.367 165.858 257.043 165.739 257.525C165.625 258.007 165.472 258.354 165.29 258.569C165.109 258.819 164.899 258.995 164.666 259.103C164.433 259.211 164.15 259.29 163.82 259.341C163.554 259.375 163.191 259.398 162.725 259.403C162.26 259.415 161.777 259.403 161.278 259.369C161.261 259.035 161.204 258.666 161.091 258.263C160.983 257.854 160.847 257.502 160.682 257.202C161.096 257.236 161.477 257.258 161.817 257.275C162.158 257.292 162.413 257.304 162.578 257.304C162.742 257.304 162.878 257.292 162.986 257.264C163.094 257.236 163.191 257.168 163.276 257.054C163.372 256.941 163.457 256.691 163.537 256.316C163.611 255.942 163.673 255.38 163.724 254.625C163.775 253.87 163.82 252.877 163.872 251.646V251.317Z" fill="black"/>
<path d="M169.273 258.948L170.692 256.928C171.225 257.109 171.781 257.336 172.36 257.615C172.945 257.887 173.501 258.176 174.034 258.472C174.562 258.772 174.999 259.062 175.328 259.345L173.785 261.564C173.484 261.281 173.081 260.986 172.564 260.668C172.048 260.356 171.503 260.043 170.93 259.731C170.357 259.425 169.806 259.164 169.273 258.948ZM169.971 271.303C170.385 270.656 170.845 269.89 171.356 269.01C171.861 268.125 172.377 267.194 172.899 266.207C173.421 265.219 173.898 264.243 174.335 263.278L176.401 264.947C175.987 265.832 175.55 266.734 175.09 267.659C174.636 268.59 174.171 269.504 173.694 270.4C173.217 271.297 172.752 272.154 172.286 272.966L169.971 271.303ZM170.669 252.172L172.116 250.203C172.644 250.419 173.194 250.668 173.768 250.952C174.341 251.236 174.886 251.531 175.402 251.837C175.918 252.144 176.338 252.439 176.668 252.723L175.124 254.913C174.806 254.612 174.403 254.3 173.904 253.966C173.404 253.636 172.871 253.307 172.309 252.984C171.742 252.66 171.197 252.388 170.663 252.172H170.669ZM181.957 250.078H184.624V258.721C184.624 260.083 184.55 261.44 184.397 262.796C184.249 264.152 183.926 265.463 183.438 266.734C182.95 268 182.212 269.203 181.225 270.332C180.231 271.462 178.909 272.483 177.252 273.397C177.105 273.198 176.9 272.977 176.645 272.739C176.384 272.5 176.117 272.268 175.833 272.041C175.55 271.819 175.288 271.632 175.056 271.479C176.622 270.684 177.859 269.793 178.779 268.811C179.698 267.83 180.39 266.791 180.844 265.69C181.298 264.584 181.599 263.443 181.741 262.262C181.883 261.082 181.951 259.896 181.951 258.699L181.957 250.078ZM176.299 261.286H192.592V263.8H176.299V261.286ZM177.57 253.937H190.651V262.382H188.035V256.451H177.57V253.937ZM185.861 262.66C186.412 264.566 187.263 266.263 188.426 267.739C189.59 269.214 191.059 270.315 192.83 271.025C192.614 271.206 192.393 271.433 192.16 271.711C191.928 271.989 191.701 272.268 191.485 272.557C191.269 272.846 191.088 273.119 190.94 273.368C188.999 272.438 187.416 271.11 186.207 269.385C184.993 267.659 184.045 265.616 183.37 263.256L185.861 262.66Z" fill="black"/>
<path d="M195.73 254.361C196.463 254.361 197.274 254.35 198.182 254.339C199.084 254.322 200.043 254.299 201.048 254.276C202.052 254.253 203.051 254.231 204.039 254.214C205.032 254.197 205.957 254.18 206.831 254.174C207.705 254.168 208.477 254.163 209.158 254.163C209.822 254.163 210.531 254.163 211.28 254.151C212.029 254.14 212.756 254.14 213.459 254.14C214.163 254.14 214.81 254.14 215.389 254.151C215.973 254.157 216.422 254.163 216.734 254.163L216.711 256.779C215.962 256.745 214.963 256.716 213.715 256.694C212.46 256.671 210.923 256.654 209.095 256.654C207.983 256.654 206.842 256.665 205.667 256.694C204.493 256.722 203.335 256.75 202.183 256.779C201.031 256.813 199.919 256.853 198.846 256.904C197.773 256.955 196.769 257.011 195.821 257.08L195.747 254.367L195.73 254.361ZM209.107 261.71C209.107 262.987 208.942 264.054 208.607 264.911C208.272 265.768 207.801 266.415 207.188 266.841C206.575 267.266 205.809 267.488 204.896 267.488C204.413 267.488 203.92 267.391 203.414 267.204C202.909 267.017 202.45 266.733 202.03 266.358C201.615 265.984 201.281 265.518 201.037 264.962C200.787 264.406 200.662 263.765 200.662 263.033C200.662 262.119 200.883 261.325 201.32 260.644C201.757 259.962 202.348 259.429 203.074 259.049C203.806 258.669 204.601 258.476 205.469 258.476C206.53 258.476 207.421 258.714 208.136 259.191C208.851 259.662 209.385 260.303 209.753 261.109C210.122 261.915 210.304 262.834 210.304 263.861C210.304 264.673 210.173 265.524 209.918 266.404C209.663 267.283 209.231 268.135 208.635 268.957C208.04 269.78 207.234 270.529 206.229 271.21C205.225 271.891 203.965 272.448 202.455 272.885L200.089 270.518C201.167 270.285 202.16 269.985 203.068 269.621C203.971 269.258 204.759 268.793 205.435 268.237C206.104 267.681 206.627 267.011 206.99 266.233C207.353 265.45 207.54 264.525 207.54 263.441C207.54 262.545 207.336 261.886 206.927 261.461C206.519 261.035 206.019 260.825 205.418 260.825C205.072 260.825 204.731 260.91 204.408 261.075C204.084 261.239 203.823 261.483 203.624 261.807C203.426 262.136 203.324 262.528 203.324 262.993C203.324 263.623 203.534 264.122 203.959 264.486C204.385 264.849 204.867 265.036 205.418 265.036C205.866 265.036 206.252 264.905 206.581 264.65C206.905 264.395 207.12 263.969 207.228 263.379C207.336 262.789 207.273 262.023 207.041 261.075L209.107 261.722V261.71ZM209.578 251.172C209.561 251.291 209.543 251.484 209.515 251.756C209.492 252.029 209.47 252.301 209.453 252.568C209.441 252.835 209.43 253.022 209.43 253.141C209.413 253.47 209.402 253.919 209.396 254.475C209.385 255.031 209.385 255.644 209.385 256.319C209.385 256.994 209.385 257.67 209.396 258.351C209.402 259.032 209.407 259.673 209.419 260.269C209.424 260.865 209.43 261.364 209.43 261.761L206.666 260.74V259.543C206.666 259.026 206.661 258.459 206.655 257.834C206.649 257.21 206.638 256.592 206.632 255.979C206.621 255.366 206.615 254.81 206.61 254.304C206.598 253.805 206.587 253.425 206.57 253.164C206.536 252.715 206.502 252.301 206.456 251.932C206.417 251.558 206.377 251.308 206.343 251.172H209.578Z" fill="black"/>
<path d="M221.705 252.344C222.039 252.378 222.391 252.406 222.777 252.429C223.163 252.451 223.509 252.468 223.827 252.468C224.094 252.468 224.502 252.463 225.042 252.446C225.592 252.429 226.211 252.412 226.892 252.395C227.573 252.383 228.254 252.361 228.94 252.344C229.627 252.327 230.246 252.304 230.796 252.27C231.347 252.236 231.761 252.213 232.045 252.196C232.504 252.162 232.879 252.128 233.151 252.082C233.424 252.037 233.639 251.997 233.781 251.946L235.257 253.967C234.99 254.131 234.712 254.307 234.434 254.489C234.15 254.67 233.872 254.863 233.605 255.056C233.27 255.289 232.867 255.601 232.391 255.993C231.903 256.384 231.392 256.804 230.841 257.264C230.297 257.718 229.758 258.166 229.23 258.597C228.696 259.034 228.214 259.42 227.783 259.766C228.248 259.619 228.702 259.522 229.139 259.483C229.576 259.443 230.024 259.42 230.473 259.42C231.863 259.42 233.111 259.687 234.218 260.215C235.325 260.743 236.199 261.475 236.846 262.394C237.493 263.319 237.816 264.375 237.816 265.572C237.816 266.883 237.481 268.063 236.806 269.108C236.131 270.152 235.137 270.98 233.815 271.588C232.493 272.195 230.864 272.496 228.923 272.496C227.777 272.496 226.755 272.331 225.864 272.008C224.979 271.684 224.281 271.23 223.77 270.64C223.271 270.05 223.016 269.357 223.016 268.563C223.016 267.91 223.197 267.309 223.549 266.741C223.912 266.179 224.412 265.72 225.059 265.373C225.706 265.027 226.455 264.851 227.306 264.851C228.43 264.851 229.383 265.078 230.155 265.538C230.927 265.992 231.517 266.605 231.937 267.365C232.351 268.131 232.578 268.954 232.612 269.834L230.019 270.209C229.985 269.261 229.729 268.489 229.247 267.893C228.764 267.297 228.123 266.996 227.306 266.996C226.806 266.996 226.404 267.127 226.097 267.394C225.785 267.66 225.632 267.961 225.632 268.313C225.632 268.812 225.887 269.21 226.398 269.511C226.909 269.811 227.573 269.959 228.401 269.959C229.797 269.959 230.978 269.783 231.954 269.437C232.924 269.091 233.656 268.58 234.156 267.916C234.655 267.252 234.905 266.457 234.905 265.527C234.905 264.761 234.666 264.091 234.201 263.495C233.736 262.899 233.111 262.445 232.311 262.11C231.511 261.775 230.614 261.611 229.621 261.611C228.64 261.611 227.743 261.73 226.931 261.974C226.12 262.212 225.354 262.553 224.639 262.984C223.924 263.416 223.237 263.943 222.562 264.568C221.886 265.192 221.194 265.884 220.479 266.65L218.458 264.556C218.924 264.193 219.446 263.773 220.03 263.291C220.609 262.808 221.2 262.32 221.801 261.821C222.403 261.321 222.964 260.85 223.492 260.402C224.026 259.954 224.474 259.579 224.843 259.284C225.189 259 225.609 258.66 226.086 258.263C226.562 257.865 227.068 257.451 227.578 257.02C228.095 256.583 228.588 256.174 229.042 255.788C229.508 255.397 229.888 255.068 230.189 254.806C229.939 254.806 229.599 254.818 229.167 254.841C228.736 254.869 228.265 254.892 227.749 254.903C227.232 254.92 226.721 254.943 226.205 254.965C225.689 254.988 225.212 255.016 224.775 255.039C224.332 255.062 223.98 255.085 223.714 255.102C223.401 255.113 223.072 255.136 222.732 255.164C222.391 255.187 222.079 255.221 221.795 255.278L221.693 252.361L221.705 252.344Z" fill="black"/>
<path d="M112.472 74.133C105.44 73.8946 90.5264 73.1228 85.7536 72.9526C84.7321 72.9185 83.478 72.4816 83.478 71.1649C83.478 69.8483 84.7321 69.4114 85.7536 69.3716C90.5264 69.2071 105.446 68.4296 112.472 68.1912C122.494 67.8564 123.918 62.4708 129.332 60.8875C129.049 51.3193 128.26 36.9672 126.075 26.2527C122.5 8.69416 117.959 0 95.4636 0C72.9678 0 68.4221 8.69416 64.8525 26.2527C61.2772 43.8113 61.4361 71.1649 61.4361 71.1649C61.4361 71.1649 61.2772 98.5186 64.8525 116.077C68.4278 133.636 72.9678 142.33 95.4636 142.33C117.959 142.33 122.505 133.636 126.075 116.077C128.254 105.363 129.043 91.0105 129.332 81.4424C123.924 79.8534 122.5 74.4735 112.472 74.133Z" fill="url(#paint0_radial_1251_322)"/>
<path d="M200.349 26.2527C196.774 8.69416 192.234 0 169.738 0C147.242 0 142.697 8.69416 139.127 26.2527C136.942 36.9785 136.153 51.3477 135.87 60.9158C141.216 62.5332 142.674 67.8621 152.645 68.1969C159.676 68.4353 174.59 69.2071 179.363 69.3773C180.385 69.4114 181.639 69.8483 181.639 71.1706C181.639 72.4929 180.385 72.9242 179.363 72.9583C174.59 73.1228 159.671 73.9003 152.645 74.1387C142.674 74.4735 141.21 79.8024 135.87 81.4197C136.153 90.9879 136.942 105.357 139.127 116.083C142.702 133.641 147.242 142.336 169.738 142.336C192.234 142.336 196.78 133.641 200.349 116.083C203.925 98.5243 203.766 71.1706 203.766 71.1706C203.766 71.1706 203.925 43.817 200.349 26.2584V26.2527Z" fill="url(#paint1_radial_1251_322)"/>
<path d="M96.3936 168.169H87.3306V216.463H96.3936V168.169Z" fill="black"/>
<path d="M29.718 168.169V188.713H9.40141V168.169H0.338379V216.463H9.40141V195.914H29.718V216.463H38.7811V168.169H29.718Z" fill="black"/>
<path d="M125.456 180.157C120.621 180.594 116.177 183.074 113.487 187.631V180.776H104.43L104.384 226.999H113.447L113.464 209.287C116.154 213.867 120.609 216.358 125.456 216.795C133.883 217.562 142.901 211.404 142.901 198.476C142.901 185.549 133.877 179.391 125.456 180.157ZM124.559 209.015C120.059 208.606 115.967 204.645 115.967 198.476C115.967 192.308 120.059 188.346 124.559 187.938C129.406 187.501 134.598 191.036 134.598 198.476C134.598 205.916 129.411 209.452 124.559 209.015Z" fill="black"/>
<path d="M80.0555 201.841C81.4459 189.361 75.5268 180.1 63.0588 180.1C51.2717 180.1 45.8521 188.328 45.8521 198.481C45.8521 208.634 51.2774 216.862 63.0588 216.862C71.6394 216.862 76.8434 212.498 79.0397 206.205H69.7383C68.2514 208.004 66.0438 209.116 63.0588 209.116C58.0931 209.116 55.2783 206.063 54.3533 201.841H80.0555ZM54.3306 195.212C55.2386 190.939 58.0591 187.852 63.0588 187.852C68.0585 187.852 70.879 190.945 71.787 195.212H54.3306Z" fill="black"/>
<path d="M264.863 168.169H255.8V216.463H264.863V168.169Z" fill="black"/>
<path d="M248.525 201.841C249.915 189.361 243.996 180.1 231.528 180.1C219.741 180.1 214.321 188.328 214.321 198.481C214.321 208.634 219.747 216.862 231.528 216.862C240.109 216.862 245.313 212.498 247.509 206.205H238.208C236.721 208.004 234.513 209.116 231.528 209.116C226.562 209.116 223.748 206.063 222.822 201.841H248.525ZM222.8 195.212C223.708 190.939 226.528 187.852 231.528 187.852C236.528 187.852 239.348 190.945 240.256 195.212H222.8Z" fill="black"/>
<path d="M208.497 201.841C209.888 189.361 203.969 180.1 191.501 180.1C179.714 180.1 174.294 188.328 174.294 198.481C174.294 208.634 179.719 216.862 191.501 216.862C200.081 216.862 205.285 212.498 207.482 206.205H198.18C196.693 208.004 194.486 209.116 191.501 209.116C186.535 209.116 183.72 206.063 182.795 201.841H208.497ZM182.772 195.212C183.68 190.939 186.501 187.852 191.501 187.852C196.5 187.852 199.321 190.945 200.229 195.212H182.772Z" fill="black"/>
<path d="M169.976 176.136V168.067C160.442 166.324 151.577 171.301 151.918 183.792H147.134V190.426H151.918V216.407H160.97V190.426H169.976V183.792H160.97C160.663 176.136 166.548 175.297 169.976 176.136Z" fill="black"/>
<defs>
<radialGradient id="paint0_radial_1251_322" cx="0" cy="0" r="1" gradientUnits="userSpaceOnUse" gradientTransform="translate(128.209 71.4374) scale(85.676 85.676)">
<stop stop-color="#FFE721"/>
<stop offset="1" stop-color="#FF882B"/>
</radialGradient>
<radialGradient id="paint1_radial_1251_322" cx="0" cy="0" r="1" gradientUnits="userSpaceOnUse" gradientTransform="translate(136.971 71.006) scale(84.8872 84.8872)">
<stop stop-color="#48D2E6"/>
<stop offset="1" stop-color="#4D6BD5"/>
</radialGradient>
</defs>
</svg>
