<svg width="24" height="24" viewBox="0 0 24 24" fill="none" xmlns="http://www.w3.org/2000/svg">
  <path fill-rule="evenodd" clip-rule="evenodd" d="M12 22.5C17.799 22.5 22.5 17.799 22.5 12C22.5 6.20101 17.799 1.5 12 1.5C6.20101 1.5 1.5 6.20101 1.5 12C1.5 17.799 6.20101 22.5 12 22.5ZM9.04566 7.4545C8.60633 7.01517 7.89401 7.01517 7.45467 7.4545C7.01533 7.89385 7.01534 8.60616 7.45467 9.0455L10.4092 12L7.45467 14.9545C7.01534 15.3938 7.01533 16.1062 7.45467 16.5455C7.89401 16.9848 8.60633 16.9848 9.04566 16.5455L12.0002 13.591L14.9547 16.5455C15.394 16.9848 16.1063 16.9848 16.5457 16.5455C16.985 16.1062 16.985 15.3938 16.5457 14.9545L13.5912 12L16.5457 9.0455C16.985 8.60616 16.985 7.89384 16.5457 7.4545C16.1063 7.01516 15.394 7.01517 14.9547 7.4545L12.0002 10.409L9.04566 7.4545Z" fill="#F84F65"/>
  </svg>
