<svg width="24" height="24" viewBox="0 0 24 24" fill="none" xmlns="http://www.w3.org/2000/svg">
  <path fill-rule="evenodd" clip-rule="evenodd" d="M12 20.125C16.4873 20.125 20.125 16.4873 20.125 12C20.125 7.51269 16.4873 3.875 12 3.875C7.51269 3.875 3.875 7.51269 3.875 12C3.875 16.4873 7.51269 20.125 12 20.125ZM12 22C17.5228 22 22 17.5228 22 12C22 6.47715 17.5228 2 12 2C6.47715 2 2 6.47715 2 12C2 17.5228 6.47715 22 12 22Z" fill="#111111"/>
  <path fill-rule="evenodd" clip-rule="evenodd" d="M7.33711 11.2868C7.70322 10.9207 8.29682 10.9207 8.66293 11.2868L10.4749 13.0988L14.7617 8.81195C15.1278 8.44584 15.7214 8.44584 16.0876 8.81195C16.4537 9.17807 16.4537 9.77166 16.0876 10.1378L11.1378 15.0875C10.7717 15.4536 10.1781 15.4536 9.81198 15.0875L7.33711 12.6127C6.97099 12.2465 6.97099 11.6529 7.33711 11.2868Z" fill="#111111"/>
  </svg>
