<svg xmlns="http://www.w3.org/2000/svg" xmlns:xlink="http://www.w3.org/1999/xlink" viewBox="0 0 665 150"><defs><linearGradient id="a" x1="-954.97" y1="3023.82" x2="-954.97" y2="3107.91" gradientTransform="translate(295.69 -635.36) scale(0.23)" gradientUnits="userSpaceOnUse"><stop offset="0" stop-color="#fff"/><stop offset="1" stop-color="#80b8db"/></linearGradient></defs><title></title><path d="M156.4,61.86,145.93,58l6.2-9.3c-8-10.56-26-14.5-43.92-8.64-.42.17-.92.34-1.34.51V39.14c0-18.86-9.31-34.7-21.8-39.06l-6.95,8.8L71.33,0C58.84,4.36,49.54,20.2,49.54,39.06v1.42c-.42-.16-.84-.33-1.35-.5-17.93-5.87-35.95-1.93-43.92,8.63l6.21,9.31L0,61.86c.25,13.24,12.49,27,30.43,32.85.41.17.83.25,1.34.42a5.86,5.86,0,0,0-.84,1.18C19.86,111.56,18,129.83,25.56,140.73l10.73-3,.51,11.23c12.65,3.86,29.5-3.52,40.56-18.86.25-.33.51-.75.76-1.09.25.34.5.76.84,1.18C90,145.42,106.87,152.8,119.52,149l.42-11.24,10.73,3c7.54-10.89,5.78-29.17-5.36-44.42a6.07,6.07,0,0,0-.84-1.09c.5-.17.92-.25,1.34-.42C144,88.85,156.15,75.1,156.4,61.86Z" fill="#07b"/><path d="M37,66.38c0,.42-.16,2.35-.67,2.69a16.56,16.56,0,0,0-2.85,2.51,11.09,11.09,0,0,1-1.67,1.76s3.1-1.43,3.85-1.93A28,28,0,0,1,39,69.07a4.21,4.21,0,0,0,2.35-1c.59-.67,1.34-.67,1.68-1.68A2.21,2.21,0,0,1,44.51,65c.42-.17,1-1.26,1.17-.84.25,1-.5,3-.17,2.68a4.66,4.66,0,0,0,1.18-1.93,10.88,10.88,0,0,1,1.5-2.34s.68-.17.84.67,0,1.67.42,1.51A15.25,15.25,0,0,1,51,64.29s-3.77,4.27-4.86,5.36-3.6,2-4.69,2.85-4.78,3.61-4.78,3.61,2.6-.93,4.11-1.68,2.76-2,4-2,1.76-1.09,2.85-1.68,2.85-2.76,2.85-2.26c-.09,1.42.42,1.17,2-1.18,1.93-2.76,2.18-3,2.93-3.35s.25,1.18,2-.75c.68-.76,3.19-3.52,4.11-4.7s2-4.52,1.43-1.17c-.09.59-.93,2.93-1,3.27-.17,1.84.17,1.42.34,1.09a21.9,21.9,0,0,1,1.5-2.52c.68-1.08,1.26-1.76,1.76-2.51a4.85,4.85,0,0,1,1.77-1.59c1.08-.76,1.34-1.51,2-1.51a5.29,5.29,0,0,1,1.42.25s.17.67.34,1.59-.51,1.51-1.18,2.52-.83,3-1.25,3.52,1-.59,2.43-2.1a33.88,33.88,0,0,0,2.51-2.76c1-1.18,1.43-3.19,1.85-3.94a10.84,10.84,0,0,1,1.42-2,6.84,6.84,0,0,0,1.68-2.85s1.51,3,1.51,4.35-.17,6.29-.51,6.79-3.69,5.87-4.27,6.21-2.18.16-2.77,1.34-2.51.83-3.43,1.67-1.93,2.77-2.94,3.52a9.16,9.16,0,0,0-1.67,1.68s2.68-1.17,3.52-1.51a18.59,18.59,0,0,0,2.85-1.68c1.76-1.08,2.76-.67,3.35-1.25a7.51,7.51,0,0,1,2-1.43,17.52,17.52,0,0,1-2,4.28,4.3,4.3,0,0,0-.76,3.18,26.7,26.7,0,0,1-2.51,5.2,6.64,6.64,0,0,1-3.27.84,6,6,0,0,1-2.77-1c-.5-.33-.92-2.18-2.93.09s-2.18,3.26-3.85,3.52a27.6,27.6,0,0,0-5,2s3.52-.59,5.2-1,3.1-1.09,3.43-1.17a1.6,1.6,0,0,1,1.76.5c.67.84,1.6,1.43,2.6.92a9.1,9.1,0,0,1,2.94-.67c.33,0-1.43,2.35-1.85,2.85a16.21,16.21,0,0,1-2.93,2.35c-1.18.75-1.34,1.84-2.1,3s-1.67,2.68-1.67,2.68S63.7,92.2,65,91.19,67.22,90.94,68,90s1.84-2.68,3.18-4.19S73.09,84.4,74,84.74s2.6,1,3.1,1.17,1.18.67,1.18.67a11.16,11.16,0,0,0-.17-2.51c-.42-1.76.08-3.19,1.34-3.1a16.61,16.61,0,0,0,3.6-.17,5.5,5.5,0,0,1,3.86,1.68c1.51,1.42,1.67,1.84,2.93,2.51l2,1a14.33,14.33,0,0,1-1.09-2.52c-.33-1.17-1-3.35-1.09-3.77s.42-1.17,1.68-1.09S94,78,95,79a26.19,26.19,0,0,0,2.85,2.09,21.11,21.11,0,0,0,2.27,1.43c.67.41.17-1.68-.42-3a18.9,18.9,0,0,0-1.85-4l-1.5-2a4.87,4.87,0,0,0,1.59.51c.67,0,.84-.42,1.67-.34s1.85.34,1.85.92-.09,1,.75,1.34,2,.51,1.85,1.35.42,1.34,1.51,2,2.76,1.84,2.76,1.84-2.09-3.52-3.43-5.45-2.6-4.36-3.27-5.36-.34-.84.5-.34a22.86,22.86,0,0,1,2.77,1.6,9.32,9.32,0,0,0,2.17.92c.51.25-.75-1.18-1.17-2.1s-.08-1.17,1-.67,4.86,1.76,5.95,2.77,1.09,2.09,2.26,2.68,2.43.5,3.6,1.34a16.29,16.29,0,0,0,2.52,1.43s.17.16-1.17-1.76-4-4.61-2-4.53,3.19,0,3.86.75,1.68,2.1,2.6,2.35,3.18.08,4.19.25a12.31,12.31,0,0,1,3.77,1.18,8.51,8.51,0,0,0,3,.75s-4.28-2.6-5-3a38.92,38.92,0,0,1-3.94-2.93c-.75-.67-2.68-1-3.19-1.43s-3.35-2.68-4.1-3.18a5,5,0,0,0-3.19,0l-3.18.67s-1.76-1-2.52-1.34a12.39,12.39,0,0,0-3.6-.84c-1,0-3.69,1-4.69,1.09s-3.11.5-3.53,0-3.85-4.95-5-6.62a12.93,12.93,0,0,0-3.94-3.35c-1.18-.76-3.36-2.69-4.45-3.61s-6.45-5.36-6.45-5.36-1.76.84-2.51,1.34-5,3.44-5,3.44a5,5,0,0,1-2.1-.51c-.92-.58-1.34.17-1.76.09-.92-.26-1.26,0-1.93.67s-4.19,3.85-6,5.61A54.33,54.33,0,0,1,53,62.11,17.51,17.51,0,0,1,50,60.35c-.84-.59-4,.17-4,.17a13.4,13.4,0,0,0-1.76,2c-.59.92-5.7,3.6-5.7,3.6a14.93,14.93,0,0,1-2.85-2.68c-1.18-1.51-2.1-.25-2.85.42s-2.43,1-4.61,2.51-8.55,6.21-8.55,6.21l5.19-1.85A25.45,25.45,0,0,0,29.34,69c1.17-.75,2.85-2,2.85-2s.75-.59.5-.08c-1.51,3.18-.67,2.18-.67,2.18a7.8,7.8,0,0,0,2-1.77,4.72,4.72,0,0,1,1.34-1.59c.42.34.17,1.18.34,1.43s.83-.84,1.09-.67M85.07,75.6a3.79,3.79,0,0,1-2-2.09,8.14,8.14,0,0,0-2.18-2.27c-1.25-.92-.83-4-.83-4s2.26,2.1,2.93,2.52,2.09,3.1,2.43,3.68A23.45,23.45,0,0,0,88,76.27,13.47,13.47,0,0,1,85.07,75.6Zm2.85-8.88a13,13,0,0,1-2.51-1.34c-.84-.67-1.76-4.53-1.76-4.53a8.23,8.23,0,0,1,1.84,1.09c.51.42,1,1.84,1.6,2.52s3,3,3,3Z" fill="url(#a)"/><path d="M46.6,104.77a5.39,5.39,0,0,1,2,.42c.34.17.51.34.51.5l-.17.51a1.8,1.8,0,0,0-.25.83L48.61,109c1.18-.17,2.18-.33,3-.5l.5-.17a23.84,23.84,0,0,0-.08-4.11,2.89,2.89,0,0,0-.25-.5c-.08-.17-.17-.25-.17-.33,0-.34.17-.42.34-.42a4.89,4.89,0,0,1,1.51.33c.67.25,1,.51,1,.67v.25a21.84,21.84,0,0,0-.59,3.69l.67-.17c.26,0,.51-.08.68-.08a1.55,1.55,0,0,1,1,.34.9.9,0,0,1,.5.83c0,.42-.08.59-.33.59a40.85,40.85,0,0,0-4.78.34c-.67.08-1.34.25-2.18.42a3.51,3.51,0,0,1-.5.16.69.69,0,0,1-.5-.25,23.27,23.27,0,0,1-.17,2.6V113a15.83,15.83,0,0,0,4.86-1,5.6,5.6,0,0,1,1.26-.34,2.87,2.87,0,0,1,1.17.42c.5.34.76.59.76.84a.7.7,0,0,1-.26.5,3.44,3.44,0,0,0-.42,2.18,16.22,16.22,0,0,1-.33,4c-.25.5-.42.83-.59.83s-.5-.25-1-.83a3.13,3.13,0,0,1-.42-1.09V118c.08-.33.17-.75.25-1.17a22.9,22.9,0,0,0,.25-3c0-.25-.08-.33-.33-.33s-2.1.33-5,.84a.63.63,0,0,1-.51-.34,9.42,9.42,0,0,1-.75,2.35,7.5,7.5,0,0,1-2.68,2.93,4.75,4.75,0,0,1-1.51.67h-.09a7.52,7.52,0,0,0,1.51-1.76A12,12,0,0,0,45.93,115a21.73,21.73,0,0,0,.67-6.29,15.45,15.45,0,0,0-.17-2.18,2,2,0,0,0-.5-1.26.3.3,0,0,1-.08-.25C46,104.77,46.27,104.77,46.6,104.77Z" fill="#fff"/><path d="M66.47,104.6a4.26,4.26,0,0,1,1.67.34c.59.25.93.5.93.67a.58.58,0,0,1-.09.33,8.64,8.64,0,0,0-.25,2.18l-.17,7.46,3.69-.42.67-.08c.08-.84.08-2,.08-3.69,0-.5-.08-.75-.33-.92a.65.65,0,0,1-.17-.42c0-.17.17-.17.5-.17a4,4,0,0,1,1.76.51c.51.16.76.33.76.5a1,1,0,0,1-.08.42,1,1,0,0,0-.26.67c-.33,3.18-.5,5.11-.67,5.7a3.31,3.31,0,0,1-.33,1,1.53,1.53,0,0,1-.84.42.79.79,0,0,1-.59-.5,1.15,1.15,0,0,1-.33-.84,1.36,1.36,0,0,1,.08-.33l.17-.84h-.08A68.09,68.09,0,0,0,65,117.76a15,15,0,0,0-3.1,1,.76.76,0,0,1-.67-.42,2,2,0,0,1-.5-1.09c0-.08,0-.17.08-.17.17-.17.17-.25.17-.33a3,3,0,0,0,.17-1.09c0-.67-.09-1.51-.17-2.52a3.35,3.35,0,0,0-.5-1.25c0-.09-.09-.17-.09-.26a.31.31,0,0,1,.34-.33,4.51,4.51,0,0,1,1.51.33c.67.17.92.34.92.51l.08,4.19c.92-.17,2-.34,3.44-.51v-6.45c0-1.09-.09-2.18-.17-3a2,2,0,0,0-.42-1.17V105C65.88,104.69,66.05,104.6,66.47,104.6Z" fill="#fff"/><path d="M82,104.52a.55.55,0,0,0,.17.42c.08.17.17.59.42,1.26.17.42.25.67.33.83a.68.68,0,0,0,.68.34.54.54,0,0,0,.58-.34,1.22,1.22,0,0,0,.17-.75,1.84,1.84,0,0,0-.17-.67,2.66,2.66,0,0,0-.84-.76,7.77,7.77,0,0,1-.92-.5c-.08.17-.25.09-.42.17Zm3.1-1.34a.82.82,0,0,0,.17.5c.09.17.25.67.5,1.34a5.69,5.69,0,0,0,.34.84.76.76,0,0,0,.67.42.56.56,0,0,0,.59-.34,1.4,1.4,0,0,0,.25-.75,1.65,1.65,0,0,0-.17-.67,4.08,4.08,0,0,0-.84-.84l-1-.5a.87.87,0,0,0-.42-.09C85.07,103.09,85.07,103.09,85.07,103.18Zm4.2.33v.42a8,8,0,0,1-.17.92,15.85,15.85,0,0,1-.84,2.1l-.5,1c-2.52.33-4.61.5-6.37.58a.66.66,0,0,0-.17-.33c-.25-.34-.42-.51-.67-.51s-.17.09-.25.26A7.39,7.39,0,0,1,79,110.14a.59.59,0,0,0-.17.5,1.41,1.41,0,0,0,.25.84,1.57,1.57,0,0,0,.84.42,1.24,1.24,0,0,0,.5-.17,4.06,4.06,0,0,0,.75-1.26,2.77,2.77,0,0,0,.34-.75h.25a2.47,2.47,0,0,0,.67-.09c2-.33,3.69-.58,5-.67a45,45,0,0,1,4.61-.33.68.68,0,0,1,.42.08c.08.08.16.08.16.17s-.16.33-.5.75l-.67.67c0,.09.08.17.25.17a10.92,10.92,0,0,1,3.1-.67c.51,0,.76-.17.76-.42s-.42-.67-1.18-1.34a3.06,3.06,0,0,0-1.5-.75l-.51.08c-1.42.17-2.68.33-3.94.5a20.34,20.34,0,0,0,2.35-2.34,3.88,3.88,0,0,1,.92-.84c.25-.17.34-.25.34-.42s-.34-.5-1-.84a9.76,9.76,0,0,0-1.34-.34C89.35,103.09,89.27,103.26,89.27,103.51Zm-6,6.88a1.68,1.68,0,0,0,.34.67,1.85,1.85,0,0,0,.84.58,7,7,0,0,0,.75-.16,11,11,0,0,1,1.85-.59,3,3,0,0,1,.75-.08c.17,0,.25.08.25.16a.26.26,0,0,1-.08.17c-.42.67-.84,1.17-1.18,1.68a6.3,6.3,0,0,1-.58-.34h-.34a.19.19,0,0,0-.17.17l.17.17a7,7,0,0,1,.42.92l.09.17-.68.08c-2.34.25-3.93.42-4.69.42a.18.18,0,0,0-.17.17,2.53,2.53,0,0,0,.42.67,1.47,1.47,0,0,0,1,.5,1.43,1.43,0,0,0,.58-.08l2.77-.51.92-.08a16.33,16.33,0,0,1,.09,2.18,2,2,0,0,1-.25.84.69.69,0,0,1-.68.33,3,3,0,0,1-.83-.16l-.34-.17c-.17,0-.17,0-.17.17a7.49,7.49,0,0,1,1.85,1.84.5.5,0,0,0,.5.25,1.71,1.71,0,0,0,1.17-.67,3.22,3.22,0,0,0,.67-2.43,17.09,17.09,0,0,0-.16-1.93l-.09-.33h1.93a6.59,6.59,0,0,1,1.17.08c.76.08,1.26.17,1.51.17s.51-.25.51-.67a1.22,1.22,0,0,0-.67-1,3.23,3.23,0,0,0-1.26-.42h-.25c-.84.17-2,.34-3.44.51a4.48,4.48,0,0,0-.5-.67h0a9.94,9.94,0,0,1,1.76-1c.58-.25,1.09-.5,1.59-.67.17-.08.34-.17.34-.34s-.34-.58-1-1a2.86,2.86,0,0,0-1.17-.59l-.09.08a3.93,3.93,0,0,1-1.09.42,8.87,8.87,0,0,1-1.76.34,12.42,12.42,0,0,1-1.51.17h-.75C83.31,110.3,83.31,110.3,83.31,110.39Z" fill="#fff"/><path d="M100.66,106.28v-.92h.09a2.64,2.64,0,0,0,.75-.09c.92-.16,1.93-.25,2.94-.33a.31.31,0,0,0,.08.25.45.45,0,0,1,.17.34,5.29,5.29,0,0,0,.08.92,14.52,14.52,0,0,1-2,.17c-.08,0-.08,0-.08.08a1.53,1.53,0,0,0,.16.42c.17.33.51.42,1,.42a3.83,3.83,0,0,0,.92-.09v.67a31.52,31.52,0,0,1-3.6.42.09.09,0,0,0-.09.09.63.63,0,0,0,.34.5,1.22,1.22,0,0,0,.67.42,1.38,1.38,0,0,0,.5-.09c.84-.16,1.51-.25,2.18-.33a44.36,44.36,0,0,1,4.86-.25c.17,0,.25-.17.25-.42a1,1,0,0,0-.33-.67,1.32,1.32,0,0,0-.76-.25,1.71,1.71,0,0,0-.67.08,17.58,17.58,0,0,1-2,.34l.09-.76c.67-.17,1.25-.25,1.92-.42.09,0,.17-.08.17-.25v-.33c0-.17-.17-.26-.33-.42a1.34,1.34,0,0,0-.42-.17.67.67,0,0,0-.34.08c-.25.09-.58.17-1,.34.08-.25.08-.5.16-.59v-.17c0-.16-.25-.33-.67-.5l-.25-.08a19.38,19.38,0,0,1,2.35-.17,20,20,0,0,1,2.09-.17,1.28,1.28,0,0,1,.51.17,1.73,1.73,0,0,1,.33,1.09c.17,1.84.25,3.69.25,5.62,0,2.43-.08,4.35-.16,5.86,0,.09,0,.17-.09.17a1.08,1.08,0,0,0-.84-.34,2.87,2.87,0,0,0-.83.09c-.93.08-2,.17-3.44.25l.08-.17a1.3,1.3,0,0,0,.25-.67l-.25-1.17.09-.42a1.53,1.53,0,0,0,.16-.42c0-.17-.25-.42-.75-.67l.42-.42.33-.33c.17-.09.17-.17.17-.26s-.08-.16-.25-.33c.67,0,1.26-.09,1.84-.09h.17a1,1,0,0,0-.33-.58v-.09h0c.33-.58.67-1,.75-1.17s.17-.17.17-.25-.25-.34-.76-.67a2.08,2.08,0,0,0-.67-.25h-.16c-.42.08-.84.25-1.34.33l-1.68.25a1.5,1.5,0,0,0-.5-.25,4.62,4.62,0,0,0-.93-.17c-.16,0-.16.09-.16.34.16.08.16.17.33.42a4.34,4.34,0,0,1,.25.84,2.49,2.49,0,0,0,.34,1.17,1.34,1.34,0,0,0,.17.42.69.69,0,0,0,.5.25c.25,0,.33-.17.42-.5h.5l-.08.17a4.63,4.63,0,0,1-.67,1.09,13.39,13.39,0,0,1-1.51,1.5c-.25.26-.67.59-1.18,1h.09c.08,0,.33-.08.75-.17a6.42,6.42,0,0,0,1.34-.67,6.49,6.49,0,0,0,1.26-1v.58c0,.25,0,.51-.08.59a5.67,5.67,0,0,0-.17.59c0,.16.08.25.17.5l.33.67h-.25c-1.59.08-2.85.17-3.85.17Zm-2-2.18v.25a8.49,8.49,0,0,1,.42,2.52c0,2.85,0,5.28-.08,7.2,0,.84-.09,2-.25,3.53v.33a2.31,2.31,0,0,0,.33,1c.17.5.42.75.76.75.16,0,.33-.08.58-.33a2.24,2.24,0,0,0,.34-.59c.58,0,1.67-.09,3.35-.17,2.1-.17,4.28-.17,6.37-.17a10.51,10.51,0,0,1,.67,1.68.55.55,0,0,0,.42.33c.25,0,.59-.25.92-.75A3,3,0,0,0,113,118c0-.67,0-2.59-.17-5.7-.09-1.76-.09-3-.09-3.85a8.11,8.11,0,0,1,.42-3.19,1.07,1.07,0,0,0,.17-.5c0-.25-.42-.59-1.26-1.09a5.11,5.11,0,0,0-1.51-.59.3.3,0,0,0-.25.09c-.75.17-1.84.33-3.1.5-2.6.34-4.86.5-6.79.59l-.16-.09a2.87,2.87,0,0,0-1.26-.33C98.74,103.85,98.65,103.93,98.65,104.1Zm5.28,6.62a11.74,11.74,0,0,1,1.43-.25,7.36,7.36,0,0,1,1.09-.08.18.18,0,0,1,.17.16v.34a6.37,6.37,0,0,1-.17.75,5.54,5.54,0,0,1-1.34.17,4.53,4.53,0,0,1-1,.09Zm4.7,1.43a4.18,4.18,0,0,1-.67,1.09,10.73,10.73,0,0,1-.93,1.09h.09a.58.58,0,0,0,.33-.09,22.08,22.08,0,0,0,2.52-1.09,1,1,0,0,0,.25-.16c0-.17-.25-.34-.67-.76a2.37,2.37,0,0,0-.76-.42C108.63,111.81,108.63,112,108.63,112.15Zm-2.52,2.18c0,.08.17.16.34.33s.5.5,1,1.09a3.81,3.81,0,0,0,.84.67.58.58,0,0,0,.59.34.62.62,0,0,0,.58-.34,1,1,0,0,0,.17-.67.71.71,0,0,0-.25-.5,4.33,4.33,0,0,0-1.26-.59c-.5-.17-1-.25-1.5-.42H106C106.11,114.24,106.11,114.33,106.11,114.33Z" fill="#fff"/><path d="M470.76,47.22c.37.25.3-.41,0,0Z" fill="#146"/><path d="M382.75,45c-13.8,1.4-3.57,6.58-1.78,13.18,1.31,4.83,2.06,13.07-3.14,15.7.28-.14-20.77-.9-21.87-1.67-6.39-4.53-3.27-21.68-15-26.58-5.46-2.3-15.22-1.89-18.31,4.7-2.44,5.23,1.21,5.66,1.78,9.53,1.23,8.35,8.06,21.36-6.91,21.82C307,82,295.74,58.9,287.94,74.2c-1.3,2.55,1.94,5.56,1.67,7.43-.64,4.47-4.91,6.22-5.33,10.78-3.86,41.52,55.49-2.61,66.55-2.61,1.93,0,3.68-1.68,5.76-1.68,2.74-.42,7-1.67,8.89-1.67s6.83-1.89,8.9-1.89c6.22,0,6.38,17.33,18.41,12.46,5.12-2.08,11.24-31.4,12-31.5C407,57,390,44.27,382.75,45Z" fill="#146"/><path d="M476.72,41.45c.62-.27,1.14-.51,1.58-.73C476.94,40.35,475,40.17,476.72,41.45Z" fill="#146"/><path d="M255.81,42.71c-6,1.28-11.08,6.06-17.37,8.16,0-9.37,10.38-12.16,1.15-22.71-3.22-3.69-11-6.69-15.69-5.76-9.71,1.94-9.37,13.73-8.9,22,.88,15.18.17,3.8,13.5,10.46,0,3.65-22.18,7-22.18,9,0,3.65-11-9.17-11.51-9.73-5.22-5.77-14.46-17.26-22.29-10.67-9.47,8,2.29,18.06,5.33,24.9,3.13,7,3.08,11.68,1.47,19.83-2.14,10.85-12.2,22.06,1,22.66,11.4.52,14.8-9.14,18.53-19.46,6-16.71,9.53-14,26.37-22.11,10.8-5.18,19.8-10.36,33.07-12,3.57-.44,25.07-.26,18.83-8.58C272.85,49.75,263,41.16,255.81,42.71Z" fill="#146"/><path d="M459.19,56.22c-.33,0,8.06-2.22,10-2.95-.85.08-1.1-.26-.74-1-2.14,1.84-1.45,0-1.45-1.38-1.43,1.42-3,1.94-4.19,3.56,5.84-12.86-17.92-28.71-24.17-13.08C443.31,52,448.18,58.09,459.19,56.22Z" fill="#146"/><path d="M221.07,80.17c-2.74.66-16.09,0-17.79,2.09-7.74,9.54,18.3,8.57,19.73,9.31,8,4.17,1.52,19.54,3.61,29,7,31.79,16.91-6.85,17.26-6.85,1,0,1-24.37,1.89-25.85,3.7-6,29.49-6.27,19.78-17.37C257.62,57.33,230.71,77.84,221.07,80.17Z" fill="#146"/><path d="M467,50.34l.13-.13C467,50.23,467,50.28,467,50.34Z" fill="#146"/><path d="M659.85,40.61c-9.15-21.29-28.66-15.5-46.81-9.86-5.67,1.76-45.95,11.5-31.26,18.76,1.32.65,22-8.45,15.49,2.09-1.67,2.71-11.4,5-14.55,2.51-6.41,9.62,13.42,6.75,13.19,9.21-.32,2.25-14.13,6.09-15.8,5.53-8.38-2.78-2.33-3.66-4.19-12-2.28-10.26-2.41-26.68-13-11.87-9,12.58-8,56-2.2,67.88,2.62,5.38,9.34,16.88,15.85,11.7,4.38-3.48-4.06-31-2.82-37.75a63.63,63.63,0,0,0,1.29-9.07c.06.58.54,2.8,4,.11,1.59-1.24,14.2-7.5,16.42-6.61,2.39,1-10.63,9.82-10.87,10.57-3.61,11.06,12.27,9.59,13.29,6-1.65,5.42-8.69,13.17-14,15.17,1.32.44.25,1.66.31,1.88,8.18,0,10.8-7.73,17.37-10.36,3.77,3.14-3.92,16,3.87,17-6.49,4.32-19.1,2.3-27.62,4.92,11.64,2.4,20.74,3.74,30.94,1.46,5.11-1.14,15.44-3.78,23-2.29,11.3,2.25,7.72,10.2,15.36,12.55,15.78,4.83,21.52-30.42,15.7-40.4C656.34,74.82,666,55,659.85,40.61ZM602.44,77a11.93,11.93,0,0,1,3.83-6.77c2-2.6,3.43,3.2,4.6,4.08C610.87,75.74,602.81,79.21,602.44,77Zm43.91,24.62c-.44,9.15-31,10.61-38,9.37,3.94.7,1.11-17.7,2.39-19.1,3.23-3.52,11.66,3.23,16-.65,3.71-3.35,6.16-8-2.48-10.08-7.67-1.86-7.72,7.66-14.29,10.83-5.19-9.86,2.42-9.28,5.41-13.13,2.31-3,9,3.22,7.57-5.15-.9-5.24-11.43-6.71-15.07-7.88,2.78-1.53,34.28-2.08,31.13-8.58-1.71-3.53-28-2.18-28.7.06,1.32-4.22,12.88-3.8,12.22-8.12-.84-5.43-10.69-4.84-14-8.47,3.16-1.59,10.9-4.21,12.14-5.44,4-.92,10.76-3,15.43-1C652.77,41.61,647.46,85.68,646.35,101.62Z" fill="#146"/><path d="M540.76,52.44C525.91,45,512.38,48.88,496,48.88c4.44-8.1,31-27.93,8.13-32.81-6.81-1.45-9.57,3.42-14.77,5.7-3,1.32-4.72,4.45-8.13,5-4.19.68-6.81-3.83-10-3.5-8.27.85-15.36,7.13-5.23,14.69,16.39,12.22,11.44-17.71,24.33-13.2.43.15-8.07,15.13-10.3,14.28.21,0,1.26.24-1.66,1.68.84.23,1.47.55.83.63.27,0-4.92,3.14-2.62.83l-3.35,2.3c1.54-.19-2,2.79-2.7,3.4a3.32,3.32,0,0,1,.3-.66,1.24,1.24,0,0,1-.32-.33c.11-.07-2.67,2.69-3.32,3.32a25.18,25.18,0,0,1,5.73,1.08c2.64,1.76-11.74,7.64-12.46,7.64.68,0,.16.13-1.57.41-6.36,0-25.35,14.86-31.91,19.78-1-4.49-1.63-8.24-4.08-11.93-5.51,2.5-15.8,22.54-10.89,29.72,3.66,5.35,12.71,1.4,13,2.2,5.92-3,2.62-14,9-18.84,2.4-1.84,20.51-10.06,24.3-10.44,15.56-1.52,8.2,10.38,7.55,18.81-.88,11.49,7.33,2.07.06,11.56-7,9.2-29.81,10.25-11.4,23.69,4.78,3.49,22.4,15.15,27.72,13.44,7.5-2.4,10.52-16.58,12-20.75.17-.47,1.25-4.65,2.38-6.17,3.21-4.35,12-3.19,16.43-8.16,14.1-15.76-25-11.19-26.69-12.71-5.41-4.84-3.55-2.55-3.14-8.12.69-9.28,12.93-6.34,3.7-15-4.75-4.47-7.64-1.29-13-2.23,7.23-5.43,20.54-8.78,30.11-8.79,13,0,25.69,12,6.1,9.52,5.63,3.76,18,5.46,24.69,5.34C549.68,70,556.38,60.25,540.76,52.44ZM477,112l3.46-.94C477.45,132.3,450.84,121.12,477,112Z" fill="#146"/><path d="M623.22,95.24c-2.33-1.56-9.24-2.94-11.09-.11C606,104.54,638,106,623.22,95.24Z" fill="#146"/></svg>