<?xml version="1.0" encoding="UTF-8"?><svg id="_レイヤー_1" xmlns="http://www.w3.org/2000/svg" width="585" height="55.81" viewBox="0 0 585 55.81"><defs><style>.cls-1{fill:#e50012;}.cls-2{fill:#231815;}</style></defs><g><rect class="cls-1" y="2.11" width="6.57" height="52.54"/><polygon class="cls-1" points="52.56 54.65 16.43 54.65 16.43 28.38 52.56 54.65"/><polygon class="cls-1" points="6.57 2.11 19.71 2.11 19.71 11.31 6.57 2.11"/><polygon class="cls-1" points="52.56 2.11 29.57 2.11 29.57 37.58 52.56 2.11"/></g><path class="cls-2" d="m114.65,31.81c.08.9-.04,2-.47,2.7-.43.7-.39,1.21-.51,2.08-.12.86-.61,1.93-1.53,2.42-.87.46-1.29.73-2.01,1.35-.64.55-1.16,1.53-2.69,1.86-1.74.37-3.57,1.04-5.57,1.81-2.11.81-3.75,1.66-5.01,2.52-1.06.72-2.02,1.28-4.41,1.94-2.28.63-3.67,1.01-5.82,2.01-2.02.94-4.07,2.66-6.26,2.38-2.07-.27-2.72-.88-2.6-2.48.12-1.6.49-3.98.22-5.63-.27-1.64-1-2.73-.33-3.44.67-.7,1.15-1.46,2.96-1.11,1.12.22,3.86-.77,5.1-.89,1.48-.15,3.33-.32,5.57-.95,2.23-.63,7.05-2.28,8.03-2.71.98-.43,1.98-.89,1.98-2.26v-6.73c0-1.33.39-2.67-2.27-2.33-2.18.29-4.9.32-7.33.64-2.43.31-3.69.58-5.37,1.04-1.4.39-1.59,1.51-2.57.57-.98-.94-2.35-2-2.23-4.58.12-2.58-.23-4.35.94-5.56,1.17-1.21,1.64-1.61,2.23-2.19.59-.59.86-1.21,3.13-.47.95.31,1.84.39,4.35.08,2.51-.31,5.83-.71,7.28-.94,1.45-.24,2.39-.24,2.39-1.49s-.16-1.8-.43-2.78c-.27-.98-.04-1.49.51-2.08.55-.59.98-1.29,1.29-2.23.31-.94,1.45-1.25,2.47-1.25s1.57.23,2.55,1.45c.98,1.21,1.25.74,2.58,1.84,1.33,1.1,2.35,1.41,1.56,4.21-.88,3.15-1.76,9.33-1.83,14.11-.08,4.78-.23,6.81.98,6.07,1.21-.74,1.61-1.06,2.11-1.41.51-.35.86-.67.86.08s.08,1.45.16,2.35Zm45.37-1.42c-.73.06-1.53,1.29-3.02,2.94-1.5,1.64-4.55,3.7-5.46,4.08-.91.38-2.58.44-3.35.73-.76.29-1.47.06-2.29.09-.82.03-1.29.06-1.82-.15-.53-.21-1.41-.35-5.29-.97-3.88-.62-7.31-.26-8.28-.26s-1.08-.23-1.08-.97.15-7.28.21-8.87c.06-1.59.76-1.94,1.88-1.97,1.12-.03,3.46-.12,4.73-.12s2.79-.09,3.55-.03c.76.06,1.14.03,1.64-.03.5-.06,1.18.12,2.97.7,1.79.59,2.47-.79,2.94-1.88.47-1.09.68-1.7,1.47-2.29.79-.59.5-.82.71-1.59.21-.76,1.91-1.59,1.7-3.14-.21-1.56-1.67-1.94-3.82-2.14-2.14-.21-3.92-.13-5.03-.13s-2.28.07-3.04-.05c-.76-.12-3.1.04-3.8.1-.7.06-1.98-.01-3.44-.01s-1.27-.87-1.19-1.99c.08-1.11.19-2.63.16-4.88-.03-2.25-1.64-3.05-3.26-4.24-1.62-1.19-3.09.39-4.47,1.92-1.03,1.15-2.58,2.91-3.61,4.2-1.03,1.29-.94,2.42-.18,3.55.56.82.71,1.58.68,3.82-.03,1.97.11,2.6.59,4.11.35,1.12.47,3.14.38,4.02-.13,1.27-.47,3.23-.53,4.87-.06,1.65.29,3.94.32,5.7.03,1.76-.12,4.4-.41,5.64-.29,1.23-.1,2.02.26,2.64.27.47.45.71.92,1.15.45.42.81.59,1.29.77.68.24,1.18.56,1.81,1.03.53.4.89.44,1.88.35,1.44-.14,3.27-.6,5.91-.63,2.64-.03,4.78.27,7.65.83,2.88.56,5.64,1.44,8.78,2.26,3.14.82,3.59-.95,4.3-1.48.71-.53,1.55-1.46,2.78-2.43,1.23-.97,1.48-1.91,1.76-2.79.29-.95,1.99-4.04,2.08-4.99.09-.91.37-1.81.66-2.7.29-.88.73-2.03.67-2.94-.06-.91-.56-1.91-1.29-1.85Zm64.22-17.24c1.02,1.34,1.55,1.71.69,4.55-.86,2.83-.68,3.9-.69,5.88-.01,2.42-.18,4-.51,6.03-.42,2.56-.56,4.35-.5,6.38.05,2.03,0,4.33.64,6.69.64,2.35,1.02,3,.43,4.22-.59,1.23-.85,1.87-1.12,2.62-.27.75-.8,1.01-1.76.8-.96-.21-1.71.05-3.15.21-1.44.16-2.52.63-3.16.22-1.37-.89-1.16-1.8-3.65-1.8-1.18,0-2.51-.03-5.56.15-4.87.28-6.15.75-8.18.76-1.99.02-3.35-.18-4.9-.07-1.5.11-3.96.32-6.52.8-2.69.5-4.12,1.98-5.99,1.34-1.87-.64-2.78-1.18-3.21-2.14-.4-.9-.68-1.1-.96-1.66-.48-.96-.02-1.34.37-3,.37-1.55.54-7.01.48-10.53-.05-3.05-.27-11.82-1.76-15.08-1.78-3.87-.96-4.12.96-7.33.95-1.58,1.46-3.25,3.12-3.68,1.69-.44,2.54-.48,3.64-.97,1.08-.48,1.82-.97,3.48-.59,1.66.37,2.66.86,5.49.54,2.83-.32,5.87-.61,8.65-.55,2.78.05,4.1.22,6.18.11,2.83-.15,4.72.11,5.9.18.91.06,2.95.01,3.45.01,1.04,0,1.86-.13,3.63,1.32,2.26,1.85,3.53,3.26,4.55,4.6Zm-37.92,7.4c0,.47.11,2.45.08,3.45-.03,1-.25,1.59.42,1.5.67-.08,2.64-.36,4.14-.47,1.92-.14,3.72-.36,5.34-.19,1.61.17,2.92.47,4.62.14,1.69-.33,2.33-.22,3.22-.17.89.05,2.17-.03,3.34-.11,1.17-.08,1.84.11,2.64.39.81.28,1.47-.06,2.5,0,1.03.06,1.45.25,1.47-.31.03-.56.28-1.7-.17-3.42-.44-1.72-.38-2.14-.61-2.53-.22-.39-.48-.55-1.03-.47-.56.08-1.01-.23-1.75-.33-2.26-.31-3.54.3-5.39.47-2.09.2-5.78-.59-7.45-.59s-4.84.11-6.7.78c-1.86.67-2.39,1-3.53,1.2q-1.14.2-1.14.67Zm27.77,16.51c-.17-.83.05-1.2.1-1.88.06-.75-.25-1.28-.72-1.65-.64-.51-3.65-.73-5.63-.77-1.89-.04-4.51.04-5.71.15-1.2.11-2.57-.02-3.76-.21-1.09-.17-1.35-.07-2.04.07-.66.13-1.83.4-2.99.48-1.17.08-2.66.14-4.48.56-.72.17-1.56.28-2.25.39-.7.11-.44.97-.5,2.48-.06,1.5-.22,3.33-.28,3.95-.06.61-.17.81.28.83.45.03,1.2-.03,3.61.08,2.42.11,6.17,0,8.53-.11,2.36-.11,3.98-.2,5.56-.22,1.58-.03,3.67-.05,4.48,0,.81.06,1.39.17,2.59.14,1.2-.03,2.2-.33,2.7-.47.5-.14.56-.39.64-1.11.08-.72.03-1.86-.14-2.7Zm104.89,5.16c-1.03,2.57-5.1,5.92-7.13,6.56-1.78.57-2.67.96-3.55,1.17-.88.21-1.82.47-2.82-1.32-1-1.79-2.78-3.2-3.99-4.02-1.23-.84-2.1-2.22-3.78-3.76-1.68-1.54-3.94-3.47-5.7-5.59-1.49-1.79-3.24-3.12-4.23-4.83-1-1.72-3.54-3.05-4.39-4.94-.34-.76-.78-1.43-1.29-1.36-.51.07,0,1.03,0,2.07s0,4.6.07,5.96c.07,1.36-.46,2.58.83,2.76,1.29.18,2.32.55,3.63.27,1.31-.27,1.95-.76,2.85.02.9.78,1.08,1.47,2.25,2.28,1.17.8,3.59,2.16,3.54,3.2-.05,1.04-.96.96-1.57,2.08-.5.91-.57,1.67-2.77,1.25-2.21-.41-3.91-.74-6.05-.74s-2.07.37-2.07,1.22,1.19,1.73.98,3.41c-.21,1.68-1.36,1.99-2.07,2.84-.71.85-1.37,1.82-2.89,1.94-1.52.12-2.48-.71-3.63-1.58-1.15-.87-2.39-1.84-1.93-3.2.46-1.36.78-2.12.78-3.06s.07-1.31-.67-1.2c-.74.12-1.52.61-2.35,1.08-.95.54-1.46.83-2.8,1.2-1.24.34-2.07.69-2.69,1.03-.62.35-1.86.07-2.62-.55-.76-.62-1.13-1.24-1.4-2.53-.28-1.29-.55-1.89-1.36-1.13-.81.76-2.14,2.53-3.15,3.15-1.01.62-2.09,1.13-2.9,1.89-.81.76-1.7,1.4-3.29,1.31-1.59-.09-2.85-.64-3.75-1.84-.9-1.2-3.08-2.6-4.12-3.4-1.1-.85-1.11-1.93-3.71-3.19-1.35-.66-2.2-.88-2.71-1.69-.51-.81-.5-1.4.48-1.43.99-.02,1.59-.19,2.65-.22,1.06-.02,2.53-.29,4.37.31,1.84.6,3.98,1.75,7.01-.28,3.04-2.02,5.08-3.38,6.6-5.36,1.52-1.98,2.3-2.88,3.01-4.12.71-1.24,1.47-1.77,2.05-2.28s2.16-2.78.51-2.39c-1.66.39-2.76.39-3.61.51-.85.12-1.65.46-2.57.99-.92.53-2.48,1.63-4.12,1.15-1.33-.39-1.24-.83-2.07-1.52-.83-.69-1.5-1.06-1.61-2.05-.15-1.26.48-5.4.71-6.03.23-.62.32-.74.48-1.14.53-1.31.46-1.9,2.38-2.2,2.74-.42,4.52-1.72,6.63-1.37,2.28.38,3.53.22,4.5.37.97.15,1.18-.21,2.14-.12.97.09,2.08.26,3.46.23,1.38-.03,2.35-.03,3.2-.15.85-.12,1.29-.23,1.23-1.14-.06-.91-.21-1.56-1.26-2.35-1.06-.79-1.61-1-1.61-1.94s-.5-1.82-.03-2.35c.47-.53.88-.44,1.47-1.15.59-.7,1.06-1.64,1.94-2.26.88-.62,1.76-.59,2.41-.41.65.18,1.96.44,2.75.85.79.41,1.39.78,2.59,1.78,1.33,1.11,2.4,1.63,2.58,3.04.18,1.41-.38,2.47-.91,3.32-.53.85-1.5,2.55-.03,2.5,1.47-.06,5.7-.09,7.75-.15,2.06-.06,5.23.26,7.31.41,2.08.15,4.87-.06,5.84-.38.97-.32,1.94-1.06,2.26.18.32,1.23,1.17,1.82.06,3.14-1.12,1.32-1.73,1.94-2.55,3.67-.82,1.73-1.56,3.96-3.64,3.93-2.08-.03-4.11-.18-6.52-.44-2.41-.26-4.61-.82-4.76-.15-.15.67.62,1.09,1.47,1.88.85.79,1.47,1.73,2.03,2.38.56.65,4.08,3.33,5.43,4.44,2.57,2.09,5.15,4.03,6.56,5.04,2,1.43,3.3,2.47,5.99,3.52,2.95,1.14,4.4,1.43,5.42,1.43,1.33,0,3.04.09,2.47,1.52Zm-45.39-18.07c-.51.03-1,1.04-1.84,2.51-.7,1.23-4.42,7-5.05,8-.63.99-.19,1.01,1.14,1.11,1.33.1,3.82-.51,5.17-.72,1.35-.22,1.18-.73,1.16-2.1-.02-1.38,0-6.02.05-7.32.05-1.31-.12-1.5-.63-1.47Zm72.74-14.5c.59,1.48,1.99.89,3.03.89s1.2.14,2.6-.52c1.4-.67,3.38,0,6.26-.29,2.88-.29,2.87-1.37,3.61-2.04.74-.66,1.34-.95,1.71-1.69.47-.93-.22-1.74-1.04-3.51-.81-1.77-2.57-1.52-4.73-1.33-2.09.18-4.4.2-7.06-.61-2.66-.81-2.9-.26-3.87.83-1.7,1.92-1.18,3.1-1.03,4.65.15,1.55-.07,2.14.52,3.62Zm62.38,12.23c0,.31-.33.49-.37.87-.04.38.04.65-.18,1.07-.22.43-.24.61-.28,1.26-.04.65.02,1.64-.53,2.39-.54.75-.97.87-1.86,1.48-.89.61-.95,1.09-1.24,1.56-.28.47-.4,1.13-1.72,1.05-1.32-.08-2.43-.22-3.73-.35-1.29-.12-3.55-.71-4.34-.77-.79-.06-1.01-.1-.97.91.04,1.01.45,3.54.47,5.47.02,1.92-.25,3.54-.32,5.16-.06,1.5-.1,2.25,0,3.37.09,1.02.63,2.28.48,3.17-.14.89-.75,1.44-1.66,2.41-.91.97-1.72,1.64-2.18,2.09-.47.45-.77.69-1.26.67-.49-.02-.89.16-1.18.47-.28.3-.89.55-1.58-.06-.69-.61-1.6-1.01-1.52-2.33.08-1.32-.1-2.33.22-3.72.32-1.4,1.09-3.44,1.34-5.27.24-1.82.45-2.61.42-4.25-.02-1.64-.06-3.12-.14-4.76-.08-1.64-.04-2.15-.1-2.96-.06-.81.24-1.3-.73-1.27-.97.02-3.38-.02-5,.08-1.62.1-2.75.2-3.5.32-.75.12-1.5.2-1.48,1.15.02.95.22,3.55-.2,5.43-.42,1.88-.95,4.29-3.59,7.43-2.63,3.14-2.9,5.71-5.12,5.75-2.23.04-2.96-1.58-4.7-1.48-1.74.1-2.07.67-2.59.1-.53-.57-1.01-.41-1.07-.87-.06-.47.16-.41,1.14-.95.66-.37,1.86-1.09,3.08-2.02-.67.09-1.4.13-2.18.07-1.8-.14-2.17-.26-2.69-1.12-.52-.86-.7-1-1.17-1.22-.48-.22-.48.06-.48.5s.02,2.83-.2,3.87c-.22,1.04-.36,1.81-1.44,2.45-1.07.64-1.51,1.4-2.07,1.93-.56.54-1.64.96-2.41.14-.78-.82-.58-1.89-.48-3.43.1-1.53.2-3.31.22-4.35.02-1.04.2-2.31-.84-1.14-1.04,1.17-3.01,3.51-4.01,4.65-1,1.14-2.11,2.33-2.87,3.31-.76.98-.86,1.99-2.45,2.01-1.59.02-3.2-.54-4.27-1.95-1.5-1.97-2.37-3.71-5-3.73-2.63-.02-2.31-1.36-2.09-1.8.22-.44.98-.5,1.84-1.2.86-.7,1.24-1.43,2.85-1.04,1.61.4,2.49.58,4.37.91,1.87.34,2.47.02,3.31-.74.84-.76,2.87-2.45,2.67-2.79-.2-.34-.24-.3-2.33.44-2.09.74-3.05,1.93-4.33,1.12-1.27-.82-2.35-1.42-1.99-3.29.36-1.87.47-2.72,1.14-3.42.52-.54,1.2-2.05,2.31-1.59.5.2,1.28.1,1.99-.27s1.3-.48,2.45-.7c1.16-.22,4.62-.86,5.82-1.06,1.2-.2,1.48-.32,1.48-.8s.34-.87-.7-.77c-1.04.1-3.69.48-5,.82-1.32.34-2.93,1.55-4.49,1.27-1.56-.28-4.01-1.46-2.81-3.91,1.19-2.45,1.79-2.79,3.25-3.23,1.46-.44,2.52-.79,3.35-.9.8-.1,1.08-.08.94-.68-.14-.6-.14-.72-.18-1.04-.04-.32-.24-.38-1.2-.26-1.05.13-2.35-.28-3.05-.9-.7-.62-1.27-1.2-.24-2.53,1.04-1.33.59-1.49.56-2.1-.04-.62.2-1.56,1.63-2.57.88-.62,1.86-.79,2.57-.71.72.08,1.29-.14,2.24-.04.96.1,1.59.08,2.92-.22,1.33-.31,1.47-.45,3-.49,1.53-.04,2.55-.12,3.29-.31.73-.18,1.2-.16,2.47-.04,1.26.12,2.37.08,3.29-.12.92-.2,1.94-.35,2.77.29.84.63,1.02.96,1.63,1.26.61.31.96,1.16,1,1.89.04.73-.61,1.31-1.43,2.24-.82.94-1.69,2.12-2.98,2.26-1.28.14-1.61-.12-1.57.41.04.53,0,.71-.08,1.1-.08.39-.31.65.27.78.57.12,1.47.29,2.51.8,1.04.51,1.34.55,1.49,1.02.14.47.35.73.84.9.49.16.98.53.9,1-.08.47-.52.99-.94,1.63-.66,1.02-.74,1.74-3.45,1.58-2.71-.17-4.32.14-5.29.17-.97.03-1.66-.06-1.58.5.08.56.22.33.58.69.36.36.33.26,1.52.29,1.19.03,4.51.3,5.4.36.89.05,1.34.84,1.99,1.44,1.52,1.38-.51,1.92-1.29,3.06-.6.87-.84,1.89-1.81,2.14-.97.25-1.69.2-.97.97.72.77,2.32,2.44,3.21,3.43.22.24.41.47.56.68,1.5-1.63,3.13-3.84,3.9-5.95.87-2.39,1.26-5.35,1.22-8-.04-2.66,0-5.17-.73-6.4-.73-1.23-.87-.81-2.11-1.34-1.24-.53-.32-1.26-.06-2.53.26-1.25.24-1.96.91-2.43.67-.47,1.14-.77,1.68-1.6.53-.8,1.07-1.62,2.21-1.58,1.13.04,1.92.08,3.28-.63,1.36-.71,4.44-2.45,5.85-3.44,1.42-.99,2.27-1.72,3.14-2.53.87-.81,1.24-.99,1.15-1.86-.08-.87-.02-1.01.67-1.72.69-.71.85-1.18,1.82-1.09.97.08,3.89.14,4.11,1.03.22.89.26,1.48,1.01,2.31.75.83,1.95,2.02,1.97,3.24.02,1.21-.22,2.23-1.4,2.69-1.17.47-3.53,3.2-7.48,4.62-2.65.95-4.31.94-6.72,1.38-1.34.24-2.52.61-3.07.79-.55.18-.89.41-.53.83.37.43.8.99.92,1.88.12.89-.12,2.02,1.05,1.92,1.7-.14,7.84-.95,11.6-.89,3.77.06,7.17.75,10.43.99,3.26.24,5.83.47,7.29-.22,1.46-.69,1.6-.3,1.6,0Zm-53.27-1.61c.08-.66-1.28-.42-2.45-.26-1.18.16-1.81.46-2.45.52-.64.06-.61.38-.62.82-.02,1.02-.02,1,1.08.86,1.1-.14,2.77-.3,3.73-.4.96-.1.64-.88.72-1.53Zm165.45-11.42c2.03-.2,4.19.47,5.95.82,1.76.35,2.23-.12,2.7-.67.47-.55,1.49-.51,2.27-.9.78-.39.39-.86,1.53-1.02,1.13-.16,1.5-.82,1.45-2.19-.04-1.06-.43-1.93-2.19-2.08-1.92-.16-3.23-.86-5.19-1.35-1.77-.44-4.32-.41-6.67-1.27-2.23-.82-2.82,1.13-3.52,2.03-.71.9-2.29,1.49-2.19,3.05.08,1.29.71,1.21.86,2.82.16,1.6,2.97.94,5.01.74Zm18.88,29.83c.51-.31,1.01-.75,1.09-1.37.08-.63,0-1.14-.04-2.19-.04-1.06-.43-1.25-1.25-1.84-.82-.59-2-1.68-3.33-2.86-1.46-1.28-1.65-1.48-2.78-2.19-1.25-.78-.97-2.09-.87-2.82.18-1.25.3-2.62,1.61-3.1,1.61-.6,3.13-.37,4.15-.54,1.3-.21,1.37-1.26,1.93-1.75.42-.36,1.2-.75,1.08-1.73-.12-.98-.78-1.25-1.92-2.78-1.13-1.53-2.19-1.33-4.03-1.18-1.84.16-3.6.08-5.95-.55-2.35-.63-3.56-.59-5.79-.47-2.23.12-4.31-.1-6.46.04-.13,0-1.41.04-2.19.12-2.76.27-2.11.74-3.01,1.02-.9.27-1.57.24-1.96,1.72-.39,1.49-1.29,2.89-2.54,4.42-1.25,1.53.86,2.15,1.25,2.62.39.47.59,1.02,1.25,1.06.67.04,1.12.87,2.19,1.13,1.25.31,3.64-1.09,6.42-2.07,2.78-.98,4.33-1.07,5.56-.82,1.37.27-.59,2.31-2.35,4.38-1.76,2.08-6.58,5.48-8.3,6.26-1.72.78-3.62,2.89-6.46,3.33-1.85.29-5.63,1.89-8.57,1.68-1.52-.11-1.61.04-1.72.67-.12.62,0,1.09,1.1,1.8,1.1.7,2,1.8,3.48,2.5,1.49.71,3.14.87,4.58.82,2-.06,5.51.23,6.73-.98.85-.84,1.52-1.88,2.7-3.09,1.17-1.22,2.46-1.88,3.56-2.51,1.1-.63.86,1.49,1.49,3.25.63,1.76.27,3.68,0,5.76-.27,2.07-.86,3.87-1.45,4.85-.7,1.17-.62,2.01-.1,3.02.53,1.03,2.14,1.12,3.39.38,1.25-.74,2.47-1.56,4.34-2.27,1.88-.7,2.27-2.58,2.47-3.99.2-1.41-.55-3.01-1.17-6.14-.63-3.13.55-5.44,1.14-5.91.59-.47,2.7.12,3.84.67,1.13.55,3.48.7,4.54,1.96,1.06,1.25,1.7.08,2.36-.31Zm45.2,4.69c-.04-1.25-1.45-1-3.05-.69-1.6.31-6.86-.14-9.24.35-1.89.39-4.7.37-7.13-.29-2.43-.67-5.36-.98-6.69-1.06-1.33-.08-.98-.78-.78-1.84.2-1.06-.08-2.19-.35-3.25-.28-1.06.15-2.78.35-3.68.2-.9,1.29-.63,2.58-.74,1.29-.12,2.46-.08,4.93-.16,2.47-.08,2.35-.78,3.01-1.84.67-1.06.98-.75,2.43-1.92,1.45-1.17,1.88-3.05,2.27-4.42.39-1.37-.63-1.21-1.72-1.25-1.1-.04-4.72-1.24-6.68-1.4-1.96-.16-4.4-.17-5.3-.24-.9-.08-.86-.7-.86-1.37s.24-2.23.47-3.99c.23-1.76.94-3.44,1.68-4.5.74-1.06.74-2,.74-3.05s.04-1.64-.94-2.39c-.98-.74-2.04-1.76-3.64-3.29-1.61-1.53-1.96-.94-3.17-1.41-1.21-.47-2.23-.35-2.66.35-.43.7-.78,1.02-1.88,1.76-1.1.74-.51,1.61-.94,2.04-.43.43-.12.82.51,1.76.63.94.88,2.28,1.09,4.85.12,1.41.27,7.24.31,8.26.04,1.02-.43,1.06-.9,1.1-.47.04-1.14.08-3.21-.16-2.08-.23-2.11.78-3.17,1.33-1.06.55-2.11.55-3.17,1.25-1.06.71-1.47,1.97-1.29,2.82.16.75.32,1.71.35,2.9.06,2.27,1.45,2.35,1.84,3.21.39.86,1.53,1.02,2.39.51.86-.51,1.37-.74,2.54-.71,1.17.04,2.93.27,3.88.35.94.08.86.47.9,1.21.04.74-.08,1.88-.47,3.68-.39,1.8.08,2.94.2,3.6.12.67-.35.59-1.41.66-1.06.08-3.13.39-4.93,1.02-1.8.63-3.03.51-4.11.16-1.37-.44-2-.23-2.7.43-.7.67-2.03,1.57-2.97,2.7-.58.69-.43,1.56-.82,2.23-.39.67-.59,1.33-.08,2.47.51,1.14,1.33,1.72,2.16,2.43.82.7,2.58-.35,4.77-1.02,2.19-.67,5.36-1.65,7.83-2.07,2.47-.43,6.38-.47,8.88-.43,2.51.04,6.5.63,8.42.86,1.92.24,2.92,1.59,5.74,2.45,2.82.86,5.61.05,6.47-.61.86-.67,2.31-1.37,4.03-2.07,1.72-.7,1.8-2.07,2.7-3.6.9-1.53.82-2.04.78-3.29Zm-145.43-19.34c-2.29.29-3.43.43-4.48.62-1.05.19-1.71,0-1.71.95s.32,6.26-.89,11.3c-.62,2.59-1.45,4.14-1.74,6.04-.29,1.91-.12,3.05-1.24,5.37-.86,1.76-1.61,2.63-1.71,3.87-.09,1.24-1.43,4.43-3.14,3.09-1.72-1.33-2.19-1.76-3.19-2-1-.24-1.57-.71-2.09-2.43-.52-1.71-.67-3.24-1.29-4.43-.62-1.19-.06-3.33.86-3.43,1.38-.15,2.22-.7,3.8-2.84,1.57-2.14,2.33-2.75,2.95-6.89.62-4.14,1.3-6.89.78-9.7-.53-2.81-.81-3.1-.72-5.15.1-2.05-.05-2.76-.38-4.81-.34-2.11-1.52-3.05-.29-4.76,1.24-1.72,1.39-2.87,2.43-3.38,3.14-1.55,2.85-2.5,4.89-3.01,2.45-.62,6.02-1.56,7.93-1.56s2.76.1,4.67-.14c1.91-.24,3-.67,4.43.48,1.43,1.14,2.29,1.91,2.95,2.38.67.48.9.76.81,1.48-.09.71-.29,1.34-1.29,1.67-1,.33-.95.86-1.24,2.43-.28,1.57-.86,3.81-.86,5.81s.38,2.76.14,4c-.24,1.24-.52,1.81-1.29,2.29-.76.48-.71,1.57-1.67,2.1-.95.52-1.48.53-2.71.43-1.24-.1-2.43-.05-4.72.24Zm-5.61-13.78c.32.97,1.22.54,2.61.11,1.38-.43,2.24-.29,3.48-.29s2-.43,3-.33c1,.09.76-.95.76-1.57s-.43-.48-1.33-.38c-.91.1-2.77.02-4.19.59-1.25.51-2.23.44-3.01.32-.38-.06-.6-.21-1.32.07-.48.19-.18.96,0,1.49Zm5.33,8.91c.75-.44,1.88-.63,2.95-.44,1.47.26,1.03-1.34,1.03-2.05s-.75-.88-1.51-.59c-.76.28-1.34.17-2.24.28-.87.11-1.78.46-3.17.89-2.34.71-2.26,1.06-2.31,2.11-.05,1.05.6.82,1.84.63,1.24-.19,2.23-.14,3.41-.83Zm46.68,30.17c.19.59-.36,1.89-2.36,3.27-1.37.95-2.05,3.63-4.74,3.14-1.54-.27-1.69-1.28-2.08-2.22-.39-.94-.63-1.32-.97-1.65-.56-.54-.55-1.74-.16-3.3.39-1.57.78-3.7.67-6.27-.12-2.58-.59-4.62-.39-5.87.19-1.25,0-4.58-.32-6.3-.31-1.72-.27-4.26-.16-5.44.12-1.17.32-1.88-.86-1.84-1.17.04-4.63.41-6.43.32-2.57-.14-4.35.19-6.58.44-1.91.21-3.98-.21-3.87-2.6.07-1.84.42-4.53.11-8.13-.31-3.6-.55-4.93-1.06-6.14-.51-1.21-1.37-1.45.9-3.91.87-.94,1.33-2.03,2.94-1.61,1.6.43,2.15.39,4.3.04,2.15-.35,4.42-.72,5.87-.62,2.32.16,4.2.23,5.45.25,1.88.03,4.72,1.23,6.2,1.51,1.49.27,2,.63,1.57,2.62-.43,2-1.01,4.97-1.1,8.02-.08,3.05.27,4.77.12,7.2-.16,2.42-.63,4.65,0,7.43.62,2.78.57,5.42.73,9.25.15,3.83.47,5.81,1.09,7.57.62,1.76,1.05,2.35.94,3.17-.12.82,0,1.09.2,1.68Zm-10.43-33.01c-.04-.59-.12-.55-1.1-.62-.98-.08-3.72-.35-5.83-.24-2.11.12-2.68.5-3.72.31-1.33-.23-1.09-.04-1.06.63.04.66.2.66.94.94.74.27,2.42.1,4.26-.08,3.21-.31,3.27.06,5.04.47,1.18.27,1.49-.82,1.45-1.41Zm.43-7.86c.04-.59-.9-.63-1.92-.67-1.02-.04-1.56.08-3.21-.31-1.64-.39-2.27.37-3.76.7-1.56.35-1.95.31-2.74.23-.78-.08-.43.71-.35,1.45.08.74.7.39,1.29.39s1.02.04,2.15-.04c1.14-.08,2.07-.35,3.72-.35s2.78.35,3.68.43c.9.08.94-.2,1.02-.59.08-.39.08-.67.12-1.25Zm-3.11,17.54c-.2.54-.32,1.35-.88,2.1-.56.75-1.11,1.22-1.35,2.16-.23.94-.49,2.29-1.97,2.35-1.47.07-1.15-.16-2.07-.28-1.13-.14-.83,2.89-.77,4.1.06,1.22.43,3.42.41,4.22-.04,1.56-.48,3.88-.43,5.98.04,2.09.17,3.04.23,3.89.06.86,0,1.5-.47,2.29-.47.79-1.05,1.58-1.93,2.22-.88.64-2.43,1.37-2.65-.02-.32-2-.79-3.78-.92-4.51-.13-.73-.19-1-.21-1.3-.02-.3-.02-.56-.49-.6-.47-.04-1.41,0-2.29.02-.88.02-1.97-.07-3.19.04-1.22.11-1.92.06-3.19.25-1.26.19-2.59.39-3.93,1.03-1.35.64-2.37.9-3.14.86-1.76-.1-5.07,1.97-6.2,1.24-1.13-.73-2.59-1.14-2.05-2.4.53-1.26-.13-3.87,1.94-4.13,1.09-.13,2.16-.17,2.74-.26.58-.09,1.09.06,1.03-.41-.06-.47-.32-.92-.02-1.9.3-.98.69-1.88.69-3.89s-.17-3.59-.04-4.42c.13-.83.19-1.13-.42-.88-.62.26-1.88.98-3.47.96-1.58-.02-1.92-.64-2.44-1.84-.51-1.2.28-1.6.58-1.9.3-.3.51-.83.49-1.54-.02-.71-.09-1.52,1.11-2.2.6-.34,1.11-.73,1.39-1.16.28-.43.49-.49,1.28-.47.79.02,1.48.08,2.18.25.75.18,5.24-.01,6.76-.51,1.52-.49,2.25-.53,3.94-.43,4,.25,7.29-.34,9.09.04,1.8.39,3.85,1.07,5.88,1.11,2.03.04,2.97-.09,3.76-.28.79-.19,1.22-.34,1.03.19Zm-12.85,17.26c0-.2-.04-.37-.04-.79s-.49-.22-1.7-.24c-1.21-.02-3.69-.17-4.94-.1-2.18.12-1.39.59-4.41.65-.73.01-1.08.63-1.38.99-.29.34-.43,1.09.23,1.03.67-.06.92-.18,2.3-.28,1.38-.1,1.98-.23,3.29-.59,1.32-.36,2.29-.41,3.26-.34.97.06,2.11.08,2.78.04.67-.04.61-.16.61-.37Zm-10.94-4.6c.02.44.18.51.75.65.57.14,1.21.04,2.69-.02,1.48-.06,2.35-.12,3.28-.06.93.06,2.13.12,3.02.06.89-.06.97-.34.95-.57-.02-.22-.04-.39-.08-.79-.04-.41-.32-.37-1.76-.47-1.44-.1-2.8.08-4.4.37-1.6.28-2.21.31-3.23.26-.42-.02-.32-.02-.83-.12-.51-.1-.41.24-.39.69Zm10.27-7.68c-.87-.2-3.5-.43-4.49-.51-.99-.08-1.92.19-2.47.55-.55.37-1.32.35-2.09.3-.77-.04-1.07.11-2,.29-1.42.26-.79.83-.61,1.34.18.51.89.12,1.91-.16,1.01-.28,1.59-.35,2.38-.26.79.08,1.92.16,3.43.16s2.96-.08,3.79-.16c.83-.08.99-.51,1.2-.93.2-.42-.18-.4-1.06-.61Z"/></svg>