<?xml version="1.0" encoding="utf-8"?>
<!-- Generator: Adobe Illustrator 26.3.1, SVG Export Plug-In . SVG Version: 6.00 Build 0)  -->
<svg version="1.0" id="レイヤー_1" xmlns="http://www.w3.org/2000/svg" xmlns:xlink="http://www.w3.org/1999/xlink" x="0px"
	 y="0px" viewBox="0 0 664.2304077 134.285202" style="enable-background:new 0 0 664.2304077 134.285202;" xml:space="preserve">
<style type="text/css">
	.st0{fill:#0D3743;}
	.st1{fill:#FFFFFF;}
</style>
<g>
	<path class="st0" d="M123.4315948,67.1436005c0-3.0419998-0.2490005-6.0264015-0.7128983-8.9375l11.4726944-1.8428001
		l-6.476593-19.9365005l-10.3701019,5.2549019c-2.7266006-5.3711014-6.2773972-10.2530022-10.5048981-14.4620018
		l8.2012024-8.2362995L98.0830002,6.6620998l-5.301796,10.3467007c-5.243103-2.6933002-10.9570007-4.5976009-16.9941025-5.5332003
		L77.5780945,0H56.6152039l1.7910004,11.4756002c-6.038105,0.9355993-11.7519035,2.8399-16.9961052,5.5332003L36.1092987,6.6620998
		L19.1513004,18.9834003l8.2001991,8.2362995c-4.2275009,4.2089996-7.7772961,9.0909004-10.5049,14.4620018L6.4775,36.4267998
		L0,56.3633003l11.4726,1.8437996c-0.4647999,2.9110985-0.7129002,5.8945007-0.7129002,8.9365005
		s0.2490997,6.0253983,0.7129002,8.9365005L0,77.9228973l6.4775,19.9355011l10.3700991-5.2538986
		c2.7266045,5.3711014,6.277401,10.2528992,10.5058994,14.4609985l-8.202198,8.238205l16.9579983,12.319397l5.3017998-10.3467026
		c5.2432022,2.6924057,10.9580002,4.5976028,16.9961052,5.5322037l-1.7919998,11.4766006h20.9628906l-1.7909927-11.4766006
		c6.0371017-0.9355011,11.7509995-2.8408051,16.9941025-5.5332031l5.301796,10.347702l16.9580002-12.319397l-8.2012024-8.2392044
		c4.2266006-4.2080002,7.7774048-9.0898972,10.5048981-14.4609985l10.3701019,5.2548981l6.476593-19.9355011l-11.4726944-1.8437958
		C123.1835938,73.1679993,123.4315948,70.1856003,123.4315948,67.1436005z"/>
	<path class="st1" d="M92.1025009,31.1739006H44.2802048c-1.8505058,0-3.5117073,0.7196999-4.9853058,2.160099
		c-1.4735985,1.4375-2.2089996,3.1161995-2.2089996,5.0341988v5V65.910202c0,1.9862976,0.7354012,3.6836014,2.2089996,5.0868988
		c1.4735985,1.4061966,3.1348,2.1054993,4.9853058,2.1054993h5h21.2421951c2.75,0,5,2.25,5,5v4.3867035c0,2.75-2.25,5-5,5
		H42.0858994h-5v5v5.6239929v5h5h47.8223038c1.8505936,0,3.5116959-0.702095,4.9842911-2.107399
		c1.4747086-1.4032974,1.4747086-1.4032974,1.4747086-1.4032974c0.0506973-0.2558975,0.1014938-0.5429993,0.1493912-0.8526001
		c0.3886108-0.8672028,0.585907-1.8105011,0.585907-2.8330002v-5V68.3779984c0-1.9179993-0.7352982-3.5997009-2.2100067-5.0371971
		c-1.4725952-1.4375-1.4725952-1.4375-1.4725952-1.4375c-0.2412033-0.0498009-0.5116959-0.0965996-0.806694-0.1435013
		c-0.8515091-0.3809013-1.7529068-0.5741997-2.7050018-0.5741997h-5H63.6688995c-2.75,0-5-2.25-5-5v-4.3916016c0-2.75,2.25-5,5-5
		h28.4336014h5v-5v-5.6200981v-5H92.1025009z"/>
	<g>
		<path class="st0" d="M292.0350952,49.9394989c-1.3457031-0.2773972-3.5732117-0.5029984-4.9482117-0.5029984h-79.8007812
			c-1.375,0-2.5,1.125-2.5,2.5v51.0743027c0,1.375,1.125,2.5,2.5,2.5h12.8075867c1.375,0,3.5391083,0,4.8106079,0
			c1.2713928,0,2.3105011-1.125,2.3105011-2.5V68.1708984c0-1.375,1.125-2.5,2.5-2.5h7.4951019c1.375,0,2.5,1.125,2.5,2.5
			v34.8399048c0,1.375,1.125,2.5,2.5,2.5h12.8096008c1.375,0,3.539093,0,4.8104858,0c1.2715149,0,2.3106079-1.125,2.3106079-2.5
			V68.1708984c0-1.375,1.125-2.5,2.5-2.5h7.4960938c1.375,0,2.5,1.125,2.5,2.5v34.8399048c0,1.375,1.125,2.5,2.5,2.5H294.5625
			c1.375,0,2.5-1.125,2.5-2.5V59.4141006c0-1.375-0.2246094-3.6016006-0.5-4.9491997c0,0-0.2637024-1.2891006-1.7950134-2.7842026
			C293.2362976,50.1856003,292.0350952,49.9394989,292.0350952,49.9394989z"/>
		<path class="st0" d="M339.4052124,86.7724991c0,1.375-1.125,2.5-2.5,2.5h-7.4961243c-1.375,0-2.5-1.125-2.5-2.5V51.9365005
			c0-1.375-1.125-2.5-2.5-2.5h-17.4266968c-1.375,0-2.5,1.125-2.5,2.5v43.5948029c0,1.375,0.2207031,3.6035004,0.4883118,4.952095
			c0,0,0.257782,1.2891006,1.7538757,2.7832031c1.4941101,1.4971008,2.7812195,1.7538986,2.7812195,1.7538986
			c1.3476868,0.2695999,3.5762024,0.490303,4.9512024,0.490303h44.7724915c1.375,0,2.5-1.125,2.5-2.5V51.9365005
			c0-1.375-1.125-2.5-2.5-2.5h-17.3242798c-1.375,0-2.5,1.125-2.5,2.5V86.7724991z"/>
		<path class="st0" d="M509.5370789,51.6806984c-1.4980774,1.4951019-1.7558594,2.7821999-1.7558594,2.7821999
			c-0.2705383,1.347702-0.492218,3.5762024-0.492218,4.9512024v14.9746017c0,1.375,0.2216797,3.6025009,0.492218,4.9511948
			c0,0,0.257782,1.2812042,1.7558594,2.7783051c1.492218,1.4980011,2.7773132,1.7548981,2.7773132,1.7548981
			c1.3477173,0.2685013,3.5761719,0.4891968,4.9511719,0.4891968h22.34375c1.375,0,2.5,1.1044998,2.5,2.455101
			s-1.125,2.455101-2.5,2.455101h-29.8203125c-1.375,0-2.5,1.125-2.5,2.5v11.2383041c0,1.375,1.125,2.5,2.5,2.5h44.7714844
			c1.375,0,3.6035156-0.2207031,4.9511719-0.490303c0,0,1.2851562-0.2567978,2.7832031-1.7538986
			c1.4922485-1.4941025,1.75-2.7842026,1.75-2.7842026c0.2695312-1.3475952,0.4902344-3.5760956,0.4902344-4.9510956V80.472702
			c0-1.375-0.2265015-3.6016006-0.5039062-4.9483032c0,0-0.2440796-1.1845016-1.7363281-2.6776962
			c-1.4980469-1.4971008-2.7832031-1.7539062-2.7832031-1.7539062c-1.3476562-0.2694931-3.5761719-0.4901962-4.9511719-0.4901962
			H532.218689c-1.375,0-2.5-1.1093979-2.5-2.4658966c0-1.3564072,1.125-2.4658051,2.5-2.4658051h29.8164062
			c1.375,0,2.5-1.125,2.5-2.5V51.9365005c0-1.375-1.125-2.5-2.5-2.5H517.265564c-1.375,0-3.6034546,0.2216988-4.9511719,0.4912987
			C512.3143921,49.9277992,511.0292969,50.1856003,509.5370789,51.6806984z"/>
		<path class="st0" d="M192.343689,49.9277992c-1.3475952-0.2695999-3.5761871-0.4912987-4.9511871-0.4912987h-44.7723999
			c-1.375,0-2.5,1.125-2.5,2.5v11.2343979c0,1.375,1.125,2.5,2.5,2.5h29.8192902c1.375,0,2.5,1.125,2.5,2.5v1.3037033
			c0,1.375-1.125,2.5-2.5,2.5h-22.3407898c-1.375,0-3.6025085,0.2206955-4.9521027,0.4902954
			c0,0-1.2872009,0.2568054-2.7832947,1.7539062c-1.4941101,1.4930954-1.738205,2.6766968-1.738205,2.6766968
			c-0.2774048,1.3467026-0.5048981,3.5733032-0.5048981,4.9483032v13.6875c0,1.375,0.2206879,3.6035004,0.4911957,4.9510956
			c0,0,0.2577972,1.2901001,1.7519073,2.7842026c1.4960938,1.4971008,2.7832947,1.7538986,2.7832947,1.7538986
			c1.3495941,0.2695999,3.5771027,0.490303,4.9521027,0.490303h44.7704926c1.375,0,2.5-1.125,2.5-2.5V59.4141006
			c0-1.375-0.2207031-3.6035004-0.4902039-4.9512024c0,0-0.2577972-1.2870979-1.7529907-2.7821999
			C193.6297913,50.1856003,192.343689,49.9277992,192.343689,49.9277992z M174.9393921,86.8173981
			c0,1.3506012-1.125,2.455101-2.5,2.455101h-7.3896027c-1.375,0-2.5-1.1044998-2.5-2.455101s1.125-2.455101,2.5-2.455101h7.3896027
			C173.8143921,84.3622971,174.9393921,85.4667969,174.9393921,86.8173981z"/>
		<path class="st0" d="M477.4432983,40.6357994c0,1.375,1.125,2.5,2.5,2.5H497.375c1.375,0,2.5-1.125,2.5-2.5v-7.3886986
			c0-1.375-1.125-2.5-2.5-2.5h-17.4317017c-1.375,0-2.5,1.125-2.5,2.5V40.6357994z"/>
		<path class="st0" d="M477.4432983,103.0108032c0,1.375,1.125,2.5,2.5,2.5H497.375c1.375,0,2.5-1.125,2.5-2.5V51.9365005
			c0-1.375-1.125-2.5-2.5-2.5h-17.4317017c-1.375,0-2.5,1.125-2.5,2.5V103.0108032z"/>
		<path class="st0" d="M661.9354858,51.6806984c-1.5332031-1.4950981-2.7285156-1.7411995-2.7285156-1.7411995
			c-1.3477173-0.2763977-3.5741577-0.5029984-4.9491577-0.5029984H574.453064c-1.375,0-2.5,1.125-2.5,2.5v51.0743027
			c0,1.375,1.125,2.5,2.5,2.5h17.4297485c1.375,0,2.5-1.125,2.5-2.5V68.1708984c0-1.375,1.125-2.5,2.5-2.5h7.4960938
			c1.375,0,2.5,1.125,2.5,2.5v34.8399048c0,1.375,1.125,2.5,2.5,2.5h17.4296875c1.375,0,2.5-1.125,2.5-2.5V68.1708984
			c0-1.375,1.125-2.5,2.5-2.5h7.4940796c1.375,0,2.5,1.125,2.5,2.5v34.8399048c0,1.375,1.125,2.5,2.5,2.5h17.4277344
			c1.375,0,2.5-1.125,2.5-2.5V59.4141006c0-1.375-0.225647-3.6016006-0.5019531-4.9491997
			C663.7284546,54.464901,663.4647827,53.1758003,661.9354858,51.6806984z"/>
		<path class="st0" d="M465.0018921,49.9277992c-1.3475952-0.2695999-3.5762024-0.4912987-4.9512024-0.4912987h-80.9295959
			c-1.375,0-3.6036072,0.2216988-4.9512024,0.4912987c0,0-1.2871094,0.2578011-2.781311,1.7528992
			c-1.4920959,1.4951019-1.750885,2.7821999-1.750885,2.7821999c-0.2714844,1.347702-0.4931946,3.5762024-0.4931946,4.9512024
			v43.5967026c0,1.375,1.125,2.5,2.5,2.5h17.429718c1.375,0,2.5-1.125,2.5-2.5V68.1708984c0-1.375,1.125-2.5,2.5-2.5h51.0272827
			c1.375,0,2.5,1.125,2.5,2.5v1.3037033c0,1.375-1.125,2.5-2.5,2.5H422.757782c-1.375,0-3.6034851,0.2206955-4.9512024,0.489296
			c0,0-1.289093,0.2578049-2.781189,1.7549057c-1.4960938,1.4930954-1.7402954,2.6766968-1.7402954,2.6766968
			c-0.2773132,1.3467026-0.5038757,3.5733032-0.5038757,4.9483032v13.6875c0,1.375,0.2206726,3.6035004,0.4902649,4.9510956
			c0,0,0.2578125,1.2901001,1.7539062,2.7842026c1.4920959,1.4971008,2.781189,1.7548981,2.781189,1.7548981
			c1.3477173,0.2686005,3.5762024,0.4893036,4.9512024,0.4893036h44.7676086c1.375,0,2.5-1.125,2.5-2.5V59.4141006
			c0-1.375-0.2197876-3.6035004-0.4883118-4.9522018c0,0-0.2558594-1.2860985-1.7538757-2.7812004
			C466.2890015,50.1856003,465.0018921,49.9277992,465.0018921,49.9277992z M447.6015015,86.8173981
			c0,1.3506012-1.125,2.455101-2.5,2.455101h-7.390625c-1.375,0-2.5-1.1044998-2.5-2.455101s1.125-2.455101,2.5-2.455101h7.390625
			C446.4765015,84.3622971,447.6015015,85.4667969,447.6015015,86.8173981z"/>
	</g>
</g>
</svg>
