<?xml version="1.0" encoding="UTF-8"?>
<svg xmlns="http://www.w3.org/2000/svg" viewBox="0 0 1500 700">
  <defs>
    <style>
      .cls-1 {
        fill: #fff;
      }

      .cls-2 {
        fill: #3d3a39;
      }

      .cls-3 {
        fill: #283d85;
      }
    </style>
  </defs>
  <g id="guide">
    <rect class="cls-1" width="1500" height="700"/>
  </g>
  <g id="beyond">
    <g>
      <path class="cls-3" d="M562.49,351.35c-2.74-6.84-6.73-12.92-11.97-18.21-5.24-5.28-11.72-9.56-19.45-12.84-7.74-3.28-16.65-4.91-26.73-4.91-11.65,0-22.09,2.11-31.35,6.3-9.25,4.21-17.08,9.84-23.48,16.89-6.42,7.04-11.34,15.25-14.76,24.6-3.43,9.35-5.14,19.16-5.14,29.43,0,12.23,1.78,23.03,5.36,32.38,3.57,9.35,8.61,17.2,15.11,23.56,6.52,6.37,14.25,11.16,23.21,14.4,8.96,3.22,18.86,4.84,29.74,4.84,6.55,0,12.92-.75,19.08-2.27,6.17-1.52,11.94-3.48,17.32-5.88,5.39-2.39,10.38-5.06,14.99-8.01,4.6-2.93,8.56-5.81,11.89-8.66v-12.33h-3.97c-2.14,1.17-4.62,2.54-7.41,4.11-2.79,1.57-5.95,3.03-9.47,4.4-3.52,1.38-7.44,2.53-11.74,3.46-4.31.93-9.11,1.39-14.4,1.39-16.15,0-28.09-4.72-35.83-14.17-7.73-9.44-11.65-23.22-11.74-41.33h93.97c.1-.69.19-1.77.29-3.23s.2-3.01.3-4.62c.09-1.62.16-3.21.21-4.77.05-1.57.08-2.79.08-3.67,0-7.04-1.37-14-4.11-20.85ZM472.34,374.69c.39-6.75,1.27-12.84,2.64-18.27,1.37-5.44,3.25-10.01,5.65-13.73,2.39-3.72,5.35-6.58,8.88-8.6,3.52-2,7.53-3.01,12.03-3.01s8.45,1.1,11.53,3.31c3.08,2.21,5.53,5.24,7.34,9.1,1.82,3.87,3.06,8.47,3.75,13.81.68,5.34,1.03,11.14,1.03,17.39h-52.85Z"/>
      <path class="cls-2" d="M610.06,534.3c-3.33,0-6.53-.2-9.62-.59-3.08-.39-5.95-.86-8.59-1.4-2.64-.54-5.04-1.17-7.19-1.91-2.15-.73-3.92-1.45-5.29-2.13l6.17-31.71h4.85c1.08.68,2.4,1.32,3.96,1.91,1.56.59,3.25,1.17,5.07,1.76,1.81.59,3.67,1.15,5.58,1.69,1.91.54,3.74.98,5.51,1.32,1.76.34,3.35.64,4.77.88,1.42.24,2.57.37,3.45.37.98,0,2.06-.05,3.23-.15,1.17-.1,2.35-.24,3.52-.44,1.17-.2,2.28-.44,3.3-.73s1.88-.73,2.57-1.32c2.54-1.76,4.57-3.5,6.09-5.21,1.52-1.71,2.94-3.84,4.26-6.39,1.32-2.55,2.72-5.73,4.19-9.54,1.47-3.82,3.33-8.66,5.58-14.54l-15.27-21.14-45.08-103.81c-.79-1.96-2.03-3.52-3.74-4.7-1.71-1.17-3.84-2.3-6.39-3.38l-10.42-4.26v-9.25h80.61v9.25l-19.97,5.87,30.54,74.44,6.17,14.98h.44l31.42-87.95-19.53-7.34v-9.25h57.26v9.25l-10.72,5.58c-2.35,1.27-4.41,2.47-6.17,3.6-1.76,1.13-3.04,2.62-3.82,4.48l-56.24,148.74c-3.52,9.4-7.24,16.91-11.16,22.54-3.92,5.63-8,9.96-12.26,12.99-4.26,3.03-8.66,5.04-13.21,6.02-4.55.98-9.18,1.47-13.88,1.47Z"/>
      <path class="cls-2" d="M887.27,362.87c-2.94-9.25-7.42-17.37-13.43-24.37-6.03-6.99-13.73-12.61-23.13-16.82-9.4-4.2-20.55-6.3-33.47-6.3-12.04,0-22.77,1.98-32.17,5.94-9.39,3.96-17.34,9.42-23.86,16.38-6.5,6.94-11.48,15.1-14.9,24.45-3.42,9.35-5.14,19.4-5.14,30.16,0,11.65,1.74,22.18,5.21,31.58s8.42,17.39,14.82,24.01c6.42,6.6,14.2,11.69,23.34,15.26,9.16,3.57,19.46,5.36,30.91,5.36,12.14,0,22.93-2,32.38-6.03,9.44-4.01,17.42-9.49,23.93-16.44,6.5-6.95,11.45-15.1,14.82-24.45,3.37-9.35,5.06-19.31,5.06-29.87,0-9.99-1.47-19.61-4.4-28.86ZM846.89,414.19c-.78,6.85-2.29,13.12-4.55,18.8-2.26,5.68-5.35,10.38-9.32,14.1-3.96,3.72-9.12,5.58-15.49,5.58-6.75,0-12.24-2-16.44-6.01-4.21-4.01-7.52-9.12-9.91-15.35-2.41-6.22-4.05-13.08-4.92-20.63-.88-7.53-1.32-14.77-1.32-21.73,0-6.27.41-12.79,1.24-19.6.84-6.8,2.36-13.04,4.56-18.72,2.19-5.68,5.28-10.33,9.25-13.95,3.96-3.62,9.07-5.44,15.34-5.44s11.48,1.84,15.64,5.5c4.16,3.67,7.52,8.5,10.06,14.47,2.54,5.96,4.35,12.72,5.43,20.26,1.08,7.53,1.62,15.21,1.62,23.04,0,6.27-.39,12.83-1.18,19.67Z"/>
      <path class="cls-2" d="M906.65,455.3l15.12-5.14c1.86-.68,3.4-1.69,4.62-3.01,1.22-1.32,1.84-3.06,1.84-5.21v-91.18c0-2.45-.69-4.5-2.05-6.17-1.37-1.66-3.57-3.03-6.61-4.11l-12.92-4.85v-7.93l61.08-11.01v23.93h.29c3.91-5.48,7.86-9.89,11.82-13.21,3.96-3.33,7.93-5.87,11.89-7.64,3.96-1.76,7.86-2.94,11.67-3.52,3.82-.59,7.64-.88,11.45-.88,6.56,0,12.65.98,18.28,2.94,5.63,1.96,10.55,4.99,14.76,9.1,4.21,4.11,7.49,9.4,9.84,15.86,2.35,6.46,3.52,14.19,3.52,23.2v74.88c0,2.45.64,4.36,1.91,5.73,1.27,1.37,2.79,2.4,4.55,3.08l13.21,5.14v9.25h-79.87v-9.25l13.36-5.14c1.66-.68,3.13-1.71,4.41-3.08,1.27-1.37,1.91-3.28,1.91-5.73v-60.79c0-6.56-.29-12.33-.88-17.33s-1.76-9.15-3.52-12.48c-1.76-3.33-4.26-5.87-7.49-7.63-3.23-1.76-7.54-2.64-12.92-2.64-2.25,0-4.63.1-7.12.29-2.5.2-4.94.71-7.34,1.54-2.4.83-4.7,2.06-6.9,3.67s-4.14,3.79-5.8,6.53v89.42c0,2.25.64,3.96,1.91,5.14,1.27,1.17,2.79,2.2,4.55,3.08l11.6,5.14v9.25h-80.17v-9.25Z"/>
      <path class="cls-2" d="M1244.79,443.12c-3.42-.98-5.73-2.31-6.89-3.97-1.18-1.65-1.77-3.71-1.77-6.17v-191.17l-65.49,11.01v7.93l16.44,5.28c3.33,1.09,5.59,2.46,6.75,4.12,1.18,1.65,1.77,3.76,1.77,6.3v46.55l.15,7.04c-1.77-1.85-3.8-3.67-6.1-5.43-2.29-1.77-4.84-3.33-7.63-4.7-2.78-1.37-5.94-2.47-9.47-3.31-3.52-.83-7.38-1.24-11.59-1.24-10.78,0-20.34,2.14-28.71,6.45-8.37,4.31-15.44,10.16-21.21,17.54-5.78,7.39-10.2,16.04-13.3,25.91-3.08,9.9-4.62,20.46-4.62,31.72,0,10.19,1.3,19.56,3.9,28.12,2.59,8.57,6.32,16,11.15,22.32,4.85,6.32,10.75,11.24,17.69,14.76,6.95,3.52,14.84,5.29,23.65,5.29,2.54,0,5.63-.2,9.25-.59,3.62-.39,7.51-1.39,11.68-3.01,4.15-1.62,8.48-4.06,12.99-7.34,4.5-3.28,8.85-7.86,13.06-13.73h.45v24.67h2.49l59.46-12.04v-7.93l-14.1-4.4ZM1195.61,431.67c-1.47,2.44-3.28,4.37-5.43,5.8-2.16,1.42-4.41,2.52-6.75,3.3-2.36.79-4.69,1.28-6.98,1.47-2.31.2-4.39.3-6.24.3-6.17,0-11.43-1.33-15.79-3.97-4.35-2.63-7.92-6.43-10.71-11.38-2.79-4.94-4.82-10.84-6.09-17.69-1.28-6.84-1.92-14.49-1.92-22.91,0-7.14.69-13.87,2.06-20.19,1.38-6.3,3.53-11.79,6.47-16.44,2.93-4.65,6.58-8.35,10.94-11.09,4.35-2.73,9.52-4.11,15.49-4.11,1.85,0,3.91.15,6.17.44,2.26.3,4.5.71,6.75,1.25,2.26.54,4.46,1.23,6.62,2.06,2.14.84,3.96,1.79,5.43,2.87v90.3Z"/>
      <path class="cls-3" d="M407.7,355.53c-2.56-8.71-6.24-16.2-11.09-22.47-4.85-6.25-10.74-11.15-17.69-14.67-6.95-3.52-14.82-5.29-23.63-5.29-2.56,0-5.66.24-9.34.74-3.67.49-7.56,1.59-11.67,3.3-4.11,1.72-8.35,4.26-12.71,7.63-4.35,3.38-8.53,8.01-12.56,13.88l.3-11.45v-87.7l8.22,2.18,19.1,5.06-19.01-32.37-21.87-37.05-6.39-10.83-.28-.49v-.03s-.19-.28-.19-.28l-.03.14v-.06s-.04-.08-.04-.08l-.18.28v.03s-.29.49-.29.49l-6.39,10.83-21.87,37.05-19.01,32.37,19.1-5.06,8.58-2.28v213.34c5.48,2.74,10.96,4.97,16.44,6.68,5.49,1.72,10.86,3.08,16.15,4.11,5.29,1.03,10.48,1.74,15.56,2.13,5.09.39,10.14.59,15.12.59,12.53,0,23.68-2.13,33.48-6.39,9.79-4.25,18.11-10.1,24.96-17.54,6.84-7.43,12.05-16.15,15.64-26.14,3.57-9.97,5.35-20.65,5.35-32,0-10.38-1.27-19.91-3.81-28.63ZM367.02,415.52c-1.38,6.7-3.52,12.62-6.47,17.77-2.93,5.14-6.68,9.25-11.23,12.33-4.55,3.08-10.01,4.62-16.38,4.62-1.95,0-4.09-.34-6.38-1.03-2.31-.69-4.55-1.57-6.75-2.64-2.21-1.08-4.24-2.28-6.1-3.6-1.85-1.32-3.32-2.67-4.4-4.03v-89.42c1.47-2.64,3.28-4.77,5.43-6.39,2.16-1.62,4.39-2.79,6.69-3.52,2.29-.74,4.6-1.2,6.89-1.39,2.31-.2,4.39-.3,6.24-.3,6.17,0,11.43,1.35,15.79,4.03,4.35,2.69,7.93,6.52,10.71,11.45,2.79,4.95,4.82,10.89,6.1,17.84,1.27,6.95,1.9,14.64,1.9,23.06,0,7.43-.69,14.51-2.06,21.21Z"/>
    </g>
  </g>
</svg>