<svg width="2153" height="314" viewBox="0 0 2153 314" fill="none" xmlns="http://www.w3.org/2000/svg">
<path d="M470.715 107.94C479.413 91.9367 491.537 79.4196 507.088 70.4791C522.641 61.5386 540.298 57.0684 559.979 57.0684C584.136 57.0684 604.779 63.5948 622.002 76.5587C639.224 89.5227 650.64 107.225 656.441 129.666H601.971C597.931 120.994 592.131 114.467 584.749 109.907C577.281 105.347 568.851 103.113 559.36 103.113C544.075 103.113 531.776 108.477 522.285 119.295C512.798 130.113 508.054 144.597 508.054 162.657C508.054 180.717 512.798 195.201 522.285 206.019C531.776 216.837 544.075 222.201 559.36 222.201C568.851 222.201 577.281 219.966 584.749 215.407C592.217 210.847 597.931 204.32 601.971 195.648H656.441C650.64 218.088 639.132 235.702 622.002 248.576C604.779 261.45 584.136 267.888 559.979 267.888C540.298 267.888 522.641 263.418 507.088 254.477C491.537 245.536 479.413 233.109 470.715 217.195C462.018 201.28 457.713 183.131 457.713 162.657C457.713 142.183 462.018 123.944 470.715 107.94Z" fill="#171717"/>
<path d="M711.965 258.502C699.317 251.617 689.39 241.783 682.094 228.997C674.89 216.213 671.199 201.282 671.199 184.205C671.199 167.128 674.89 152.376 682.186 139.502C689.562 126.628 699.58 116.793 712.321 109.909C725.055 103.024 739.378 99.627 755.19 99.627C771.008 99.627 785.324 103.024 798.065 109.909C810.806 116.793 820.818 126.628 828.2 139.502C835.581 152.376 839.18 167.307 839.18 184.205C839.18 201.103 835.49 216.033 828.022 228.908C820.554 241.783 810.45 251.617 797.624 258.502C784.797 265.385 770.481 268.783 754.577 268.783C738.673 268.783 724.528 265.385 711.879 258.502H711.965ZM778.911 214.603C785.588 207.54 788.93 197.437 788.93 184.205C788.93 170.973 785.68 160.96 779.267 153.807C772.762 146.744 764.859 143.168 755.368 143.168C745.877 143.168 737.71 146.655 731.297 153.628C724.884 160.602 721.72 170.794 721.72 184.116C721.72 197.437 724.884 207.451 731.119 214.514C737.354 221.577 745.263 225.153 754.754 225.153C764.239 225.153 772.326 221.577 778.911 214.514V214.603Z" fill="#171717"/>
<path d="M859.387 139.326C865.623 126.541 874.237 116.707 885.04 109.823C895.849 102.938 907.885 99.5409 921.238 99.5409C931.87 99.5409 941.532 101.776 950.318 106.336C959.104 110.895 966.045 116.975 971.048 124.574V48.2217H1020.6V266.372H971.048V242.769C966.394 250.637 959.803 256.895 951.195 261.634C942.587 266.372 932.569 268.697 921.238 268.697C907.885 268.697 895.849 265.21 885.04 258.237C874.237 251.263 865.715 241.339 859.387 228.464C853.152 215.59 849.988 200.748 849.988 183.761C849.988 166.774 853.152 152.022 859.387 139.237V139.326ZM960.772 154.347C953.917 147.105 945.573 143.439 935.732 143.439C925.892 143.439 917.547 147.015 910.693 154.168C903.844 161.32 900.417 171.244 900.417 183.761C900.417 196.278 903.844 206.292 910.693 213.712C917.547 221.044 925.892 224.798 935.732 224.798C945.573 224.798 953.917 221.133 960.772 213.891C967.627 206.649 971.048 196.725 971.048 184.119C971.048 171.512 967.627 161.589 960.772 154.347Z" fill="#171717"/>
<path d="M1202.28 196.275H1090.18C1090.97 206.467 1094.22 214.335 1099.85 219.699C1105.55 225.064 1112.59 227.835 1120.84 227.835C1133.23 227.835 1141.84 222.561 1146.68 211.921H1199.38C1196.66 222.739 1191.83 232.484 1184.71 241.067C1177.69 249.74 1168.81 256.535 1158.18 261.452C1147.55 266.369 1135.69 268.783 1122.51 268.783C1106.7 268.783 1092.56 265.385 1080.26 258.501C1067.87 251.617 1058.2 241.783 1051.26 228.997C1044.32 216.213 1040.81 201.282 1040.81 184.205C1040.81 167.128 1044.24 152.198 1051.08 139.412C1057.94 126.628 1067.52 116.793 1079.9 109.909C1092.29 103.024 1106.44 99.627 1122.51 99.627C1138.59 99.627 1152.03 102.935 1164.24 109.64C1176.37 116.346 1185.95 125.823 1192.79 138.251C1199.65 150.588 1203.08 165.072 1203.08 181.613C1203.08 186.351 1202.81 191.268 1202.2 196.364L1202.28 196.275ZM1152.47 168.291C1152.47 159.618 1149.57 152.734 1143.78 147.638C1137.98 142.542 1130.77 139.949 1122.07 139.949C1113.38 139.949 1106.79 142.363 1101.08 147.28C1095.36 152.198 1091.85 159.171 1090.53 168.201H1152.56L1152.47 168.291Z" fill="#171717"/>
<path d="M1330.03 266.453L1287.77 188.312H1275.91V266.453H1226.36V59.4785H1309.47C1325.55 59.4785 1339.16 62.3394 1350.5 68.0612C1361.83 73.7836 1370.27 81.5616 1375.89 91.486C1381.51 101.41 1384.32 112.496 1384.32 124.655C1384.32 138.424 1380.54 150.673 1372.9 161.491C1365.26 172.309 1354.01 179.998 1339.16 184.468L1386.08 266.453H1330.11H1330.03ZM1275.82 152.639H1306.57C1315.62 152.639 1322.47 150.405 1326.95 145.845C1331.52 141.285 1333.8 134.937 1333.8 126.712C1333.8 118.486 1331.52 112.675 1326.95 108.115C1322.38 103.556 1315.62 101.32 1306.57 101.32H1275.82V152.639Z" fill="#171717"/>
<path d="M1409.01 139.316C1415.25 126.531 1423.86 116.696 1434.67 109.812C1445.47 102.928 1457.6 100.514 1470.86 100.514H1570.23V266.362H1520.68V243.116C1515.84 250.805 1509.17 256.974 1500.56 261.713C1491.94 266.451 1481.93 268.776 1470.6 268.776C1457.42 268.776 1445.47 265.289 1434.67 258.316C1423.86 251.342 1415.34 241.418 1409.01 228.544C1402.77 215.669 1399.61 200.827 1399.61 183.84C1399.61 166.853 1402.77 152.101 1409.01 139.316ZM1510.39 154.336C1503.54 147.094 1495.19 143.429 1485.36 143.429C1475.52 143.429 1467.17 147.005 1460.32 154.157C1453.47 161.31 1450.04 171.234 1450.04 183.751C1450.04 196.268 1453.47 206.281 1460.32 213.702C1467.17 221.033 1475.52 224.788 1485.36 224.788C1495.19 224.788 1503.54 221.123 1510.39 213.881C1517.25 206.638 1520.68 196.715 1520.68 184.109C1520.68 171.502 1517.25 161.578 1510.39 154.336Z" fill="#171717"/>
<path d="M1669.94 106.604C1678.64 101.865 1688.56 99.5409 1699.81 99.5409C1713.16 99.5409 1725.2 102.938 1736.01 109.823C1746.81 116.707 1755.33 126.541 1761.66 139.326C1767.9 152.112 1771.06 166.953 1771.06 183.85C1771.06 200.748 1767.9 215.679 1761.66 228.553C1755.42 241.428 1746.81 251.352 1736.01 258.326C1725.2 265.299 1713.16 268.786 1699.81 268.786C1688.39 268.786 1678.46 266.462 1669.94 261.902C1661.42 257.253 1654.74 251.174 1649.91 243.485V266.462H1600.36V48.2217H1649.91V125.2C1654.57 117.512 1661.24 111.342 1669.94 106.604ZM1710.35 154.257C1703.5 147.105 1695.06 143.528 1684.97 143.528C1674.86 143.528 1666.77 147.194 1659.93 154.436C1653.07 161.678 1649.64 171.602 1649.64 184.208C1649.64 196.814 1653.07 206.739 1659.93 213.98C1666.77 221.222 1675.12 224.888 1684.97 224.888C1694.8 224.888 1703.24 221.222 1710.18 213.802C1717.12 206.47 1720.63 196.457 1720.63 183.85C1720.63 171.244 1717.2 161.409 1710.35 154.257Z" fill="#171717"/>
<path d="M1860.86 106.604C1869.55 101.865 1879.48 99.5409 1890.73 99.5409C1904.08 99.5409 1916.12 102.938 1926.93 109.823C1937.73 116.707 1946.25 126.541 1952.58 139.326C1958.81 152.112 1961.98 166.953 1961.98 183.85C1961.98 200.748 1958.81 215.679 1952.58 228.553C1946.34 241.428 1937.73 251.352 1926.93 258.326C1916.12 265.299 1904.08 268.786 1890.73 268.786C1879.3 268.786 1869.38 266.462 1860.86 261.902C1852.33 257.253 1845.66 251.174 1840.83 243.485V266.462H1791.27V48.2217H1840.83V125.2C1845.48 117.512 1852.16 111.342 1860.86 106.604ZM1901.27 154.257C1894.42 147.105 1885.98 143.528 1875.88 143.528C1865.77 143.528 1857.69 147.194 1850.84 154.436C1843.99 161.678 1840.56 171.602 1840.56 184.208C1840.56 196.814 1843.99 206.739 1850.84 213.98C1857.69 221.222 1866.04 224.888 1875.88 224.888C1885.72 224.888 1894.15 221.222 1901.09 213.802C1908.03 206.47 1911.55 196.457 1911.55 183.85C1911.55 171.244 1908.12 161.409 1901.27 154.257Z" fill="#171717"/>
<path d="M1985.87 77.0053C1980.34 71.8194 1977.61 65.3825 1977.61 57.6936C1977.61 50.0046 1980.34 43.2989 1985.87 38.1136C1991.4 32.9276 1998.43 30.335 2007.13 30.335C2015.83 30.335 2022.59 32.9276 2028.13 38.1136C2033.66 43.2989 2036.39 49.8253 2036.39 57.6936C2036.39 65.5612 2033.66 71.8194 2028.13 77.0053C2022.59 82.1907 2015.65 84.7833 2007.13 84.7833C1998.61 84.7833 1991.32 82.1907 1985.87 77.0053ZM2031.82 101.949V266.456H1982.27V101.86H2031.82V101.949Z" fill="#171717"/>
<path d="M2152.01 223.628V266.364H2126.79C2108.87 266.364 2094.81 261.894 2084.8 252.954C2074.78 244.013 2069.77 229.44 2069.77 209.145V143.7H2050.09V101.857H2069.77V61.8037H2119.32V101.857H2151.74V143.7H2119.32V209.771C2119.32 214.688 2120.47 218.264 2122.84 220.41C2125.12 222.556 2128.99 223.628 2134.43 223.628H2152.09H2152.01Z" fill="#171717"/>
<path d="M156.617 313.754C243.05 313.754 313.117 243.686 313.117 157.254C313.117 70.8213 243.05 0.753906 156.617 0.753906C70.1846 0.753906 0.117188 70.8213 0.117188 157.254C0.117188 243.686 70.1846 313.754 156.617 313.754Z" fill="#D75D2C"/>
<path d="M262.892 131.331C262.892 131.331 241.085 103.457 213.675 101.863C195.987 100.819 191.702 103.182 190.934 104.942C189.836 95.8162 182.036 53.5364 128.15 44.5762C135.029 94.0252 163.438 81.1405 180.169 115.223C180.169 115.223 151.936 76.848 105.52 90.9771C105.52 90.9771 122.438 126.494 172.478 133.751C172.478 133.751 176.488 147.495 177.697 149.915C177.697 149.915 100.631 109.725 77.2312 186.86C59.8164 182.915 53.9751 201.82 73.991 214.734C73.991 214.734 77.3968 201.209 85.6901 197.196C85.6901 197.196 67.893 217.044 88.821 240.815H163.935C165.75 237.808 173.783 221.99 153.917 210.017C167.94 209.816 179.355 236.269 191.637 240.997H209.499C210.104 239.528 211.367 235.13 208.4 231.173C203.825 225.926 193.81 226.636 193.899 216.933C197.358 171.794 265.042 185.656 262.89 131.331H262.892Z" fill="#FEFEFE"/>
</svg>
